<?xml version="1.0" encoding="utf-8"?>
<!-- Generator: Adobe Illustrator 19.2.0, SVG Export Plug-In . SVG Version: 6.00 Build 0)  -->
<svg version="1.1" id="Laag_1" xmlns="http://www.w3.org/2000/svg" xmlns:xlink="http://www.w3.org/1999/xlink" x="0px" y="0px"
	 viewBox="0 0 250 75" style="enable-background:new 0 0 250 75;" xml:space="preserve">
<style type="text/css">
	.st0{fill:#232C77;}
	.st1{fill:#FFFFFF;}
	.st2{fill:#EF7D00;}
</style>
<g>
	<rect x="192.8" class="st0" width="57.5" height="75.6"/>
	<g>
		<path class="st1" d="M203.4,44.6c0.5-1.7,2-2.3,2-2.3c0.4,0,0.4,0.1,1.3,0.1c2.1,0,3.3-0.8,4.7-4.3l3.5-8.8l0,0l1.9-4.6h0l2.7-6.6
			c2-5,5.5-7.6,11.3-7.6c1.3,0,2.7,0.1,4.2,0.2c0,0,1.2,0.9,0.8,2.3c-0.7,2.3-2,2.7-2,2.7c-0.6,0-2-0.1-2.6-0.1
			c-2.5,0-3.6,0.7-5.3,4.8l-1.7,4.2H242l-12,31.5h-5.7l9.9-26.9h-11.8l-3.8,9.7c-2.2,5.4-5.2,8.7-11.5,8.7c-1.7,0-2.4,0-2.4,0
			S202.9,46.4,203.4,44.6z"/>
		<circle class="st1" cx="241.2" cy="17.7" r="3.7"/>
	</g>
	<g>
		<path class="st0" d="M202.5,43.8c0.5-1.7,2-2.3,2-2.3c0.4,0,0.4,0.1,1.3,0.1c2.1,0,3.3-0.8,4.7-4.3l3.5-8.8l0,0l1.9-4.6h0l2.7-6.6
			c2-5,5.5-7.6,11.3-7.6c1.3,0,2.7,0.1,4.2,0.2c0,0,1.2,0.9,0.8,2.3c-0.7,2.3-2,2.7-2,2.7c-0.6,0-2-0.1-2.6-0.1
			c-2.5,0-3.6,0.7-5.3,4.8l-1.7,4.2h17.8l-12,31.5h-5.7l9.9-26.9h-11.8l-3.8,9.7c-2.2,5.4-5.2,8.7-11.5,8.7c-1.7,0-2.4,0-2.4,0
			S202.1,45.6,202.5,43.8z"/>
		<circle class="st0" cx="240.4" cy="16.8" r="3.7"/>
	</g>
	<g>
		<path class="st2" d="M201.9,42.9c0.5-1.7,2-2.3,2-2.3c0.4,0,0.4,0.1,1.3,0.1c2.1,0,3.3-0.8,4.7-4.3l3.5-8.8l0,0l1.9-4.6h0l2.7-6.6
			c2-5,5.5-7.6,11.3-7.6c1.3,0,2.7,0.1,4.2,0.2c0,0,1.2,0.9,0.8,2.3c-0.7,2.3-2,2.7-2,2.7c-0.6,0-2-0.1-2.6-0.1
			c-2.5,0-3.6,0.7-5.3,4.8l-1.7,4.2h17.8l-12,31.5h-5.7l9.9-26.9h-11.8l-3.8,9.7c-2.2,5.4-5.2,8.7-11.5,8.7c-1.7,0-2.4,0-2.4,0
			S201.5,44.7,201.9,42.9z"/>
		<circle class="st2" cx="239.8" cy="15.9" r="3.7"/>
	</g>
</g>
<g>
	<path class="st0" d="M8.5,30.3L9,32l0.5-1.7l0,0L13.1,20l4.5,0L10.2,38l-2.6,0L0,20l4.6,0C4.6,20,8.5,30.3,8.5,30.3z"/>
	<path class="st0" d="M25.7,31c-2.9,0.7-4.1,1.6-4.1,3c0,0.5,0.2,0.9,0.5,1.3c0.3,0.3,0.8,0.5,1.3,0.5c0.8,0,1.8-0.5,2.5-1.2
		l0.1-0.1v-0.1v-3.2V31L25.7,31z M26,27.7c0-0.5-0.2-1-0.6-1.4c-0.5-0.5-1.1-0.7-1.9-0.7c-1.3,0-2.6,0.4-3.8,1.3
		c-0.4,0.3-0.7,0.5-1.1,0.9v-3.4l0.4-0.2c0.2-0.1,0.4-0.2,0.6-0.3c1.6-0.8,3.3-1.3,5-1.3c1.8,0,3.4,0.6,4.4,1.6
		c0.8,0.8,1.3,1.9,1.3,3.2v6.2c0,0.8,0.1,1.2,0.3,1.4c0.1,0.1,0.3,0.2,0.6,0.2c0.3,0,0.7-0.1,1.1-0.4l-0.3,2.5c0,0-0.2,0.1-0.3,0.1
		c-1.5,0.6-2.4,0.8-3.2,0.8c-1.2,0-1.8-0.3-2.3-1.2L26,36.9L25.8,37c-1.3,0.9-2.6,1.3-3.9,1.3c-1.3,0-2.5-0.4-3.3-1.2
		c-0.7-0.7-1.1-1.6-1.1-2.6c0-1.7,1-3.1,2.9-3.9c0.8-0.3,2.3-0.9,2.3-0.9c0.2,0,0.5-0.1,1-0.2c0,0,1.2-0.3,1.2-0.3
		c0,0,1.1-0.3,1.1-0.3l0.1,0v-0.1V27.7z"/>
	<path class="st0" d="M35,22.9h4.3l0,2.4l0.3-0.4c1.5-1.7,2.8-2.4,4.7-2.4c1.4,0,2.7,0.5,3.5,1.4c0.9,0.9,1.4,2.2,1.4,3.8V38L45,38
		l0-8.8c0-0.5-0.1-1-0.2-1.4c-0.2-1-1.2-1.7-2.2-1.7c-1.1,0-2.1,0.6-3.2,1.9l0,0.1v0.1V38L35,38V22.9z"/>
	<path class="st0" d="M164.8,22.9h4.3v2.4l0.3-0.4c1.5-1.7,2.8-2.4,4.7-2.4c1.4,0,2.7,0.5,3.5,1.4c0.9,0.9,1.4,2.2,1.4,3.8V38
		l-4.3,0l0-8.8c0-0.5-0.1-1-0.2-1.4c-0.2-1-1.2-1.7-2.2-1.7c-1.1,0-2.1,0.6-3.2,1.9l0,0.1v0.1V38l-4.3,0V22.9z"/>
	<path class="st0" d="M69.6,19.8c2,0,3.7,0.6,4.7,1.6c0.8,0.8,1.2,1.8,1.2,2.9c0,1.6-0.7,2.7-2.3,3.4c0,0,0,0,0,0
		c-0.1,0-0.5,0.2-0.5,0.2s0.4,0.2,0.5,0.2c2.5,0.8,3.8,2.3,3.8,4.6c0,2.4-1.6,4.3-4.1,4.9c-0.7,0.2-1.6,0.3-2.6,0.3h-9l0-18.1
		L69.6,19.8z M68.1,27.4c1,0,1.9-0.3,2.4-0.8c0.4-0.4,0.6-1,0.6-1.7c0-0.6-0.2-1.2-0.6-1.6c-0.5-0.5-1.3-0.8-2.3-0.8H66l0,4.9H68.1z
		 M69.2,35.3c1.1,0,2-0.3,2.6-0.9c0.5-0.5,0.7-1.1,0.7-1.8c0-0.7-0.2-1.4-0.7-1.8c-0.6-0.6-1.6-0.9-2.9-0.9H66v5.4H69.2z"/>
	<path class="st0" d="M79.6,22.9h4.3l0,3.6l0.4-0.6c1.5-2.4,2.7-3.4,4.1-3.4c1,0,2,0.3,3.1,1.1l-1.6,4c-0.9-0.7-1.7-1-2.4-1
		c-1.9,0-3.6,2.3-3.6,4.9V38l-4.3,0V22.9z"/>
	<path class="st0" d="M98.9,38.3c-2,0-3.7-1.1-4.4-2.7c-0.3-0.7-0.4-1.5-0.4-2.5V22.9l4.3,0l0,8.7c0,1.1,0.3,1.9,0.8,2.4
		c0.4,0.4,1,0.6,1.7,0.6c1.2,0,2.2-0.6,3.2-2l0,0v-9.7l4.3,0l0,15l-4.3,0l0-2.6l-0.3,0.4C102,37.6,100.7,38.3,98.9,38.3z"/>
	<path class="st0" d="M124.4,26.1c-1-0.4-2.2-0.7-3.3-0.7c-3.2,0-5.4,2-5.4,5.1c0,1.4,0.5,2.6,1.3,3.5c0.9,0.9,2.2,1.4,3.8,1.4
		c0.7,0,1.6-0.2,1.6-0.2l0-2.4l-1.7,0c0,0-0.8-0.5-0.8-1.4c0-0.8,0.8-1.4,0.8-1.4h5.3l0,7.6c0,0-0.9,0.2-1,0.2
		c-1.8,0.3-3.5,0.5-4.7,0.5c-2.6,0-4.8-0.8-6.4-2.4c-1.4-1.4-2.1-3.3-2.1-5.4c0-2.2,0.8-4.3,2.3-5.7c1.5-1.5,3.7-2.4,6.1-2.4
		c1.8,0,3.2,0.3,5.1,1l0,3.1C125.3,26.6,124.6,26.3,124.4,26.1z"/>
	<path class="st0" d="M141.7,26.1c-1-0.4-2.2-0.7-3.3-0.7c-3.2,0-5.4,2-5.4,5.1c0,1.4,0.5,2.6,1.3,3.5c0.9,0.9,2.2,1.4,3.8,1.4
		c0.7,0,1.6-0.2,1.6-0.2l0-2.4l-1.7,0c0,0-0.8-0.5-0.8-1.4c0-0.8,0.8-1.4,0.8-1.4h5.3l0,7.6c0,0-0.9,0.2-1,0.2
		c-1.8,0.3-3.5,0.5-4.7,0.5c-2.6,0-4.8-0.8-6.4-2.4c-1.4-1.4-2.1-3.3-2.1-5.4c0-2.2,0.8-4.3,2.3-5.7c1.5-1.5,3.7-2.4,6.1-2.4
		c1.8,0,3.2,0.3,5.1,1l0,3.1C142.7,26.6,142,26.3,141.7,26.1z"/>
	<path class="st0" d="M151.1,28.7h5.8h0.2l0-0.2c-0.2-1.9-1.3-3.1-3-3.1c-1.6,0-2.8,1.2-3.2,3.1l0,0.2H151.1z M150.8,31.2
		c0.3,2.5,2,4,4.6,4c1.5,0,3.1-0.5,5-1.7l0,2.8l0,0c-2.2,1.4-4,1.9-6.1,1.9c-2.3,0-4.3-0.8-5.7-2.2c-1.4-1.4-2.2-3.4-2.2-5.7
		c0-2.3,0.8-4.3,2.2-5.7c1.4-1.4,3.2-2.1,5.2-2.1c2,0,3.7,0.6,4.9,1.8c1.4,1.4,2.1,3.5,2.1,6.2V31l-9.8,0h-0.2L150.8,31.2z"/>
	<path class="st0" d="M67.1,45.8h-2.4l-4,9.8l2.5,0c0,0,0.8-2.1,0.8-2.2c0.1,0,3.9,0,4,0c0,0.1,0.8,2.2,0.8,2.2l2.5,0L67.1,45.8
		L67.1,45.8z M65.9,48c0,0.2,0.1,0.5,0.2,0.8c0,0,1.1,2.8,1.2,3.3c-0.1,0-2.7,0-2.8,0c0-0.1,1.2-3.3,1.2-3.3v0
		C65.8,48.6,65.9,48.2,65.9,48z"/>
	<path class="st0" d="M74,45.8L74,45.8l0,9.8h4c1.4,0,2.7-0.5,3.6-1.3c0.9-0.9,1.4-2.1,1.4-3.5c0-1.4-0.5-2.7-1.4-3.6
		c-0.9-0.9-2.2-1.4-3.6-1.4H74z M76.3,47.5h1.1c1,0,1.8,0.3,2.3,0.9c0.6,0.6,0.9,1.4,0.9,2.4c0,1-0.3,1.8-0.9,2.4
		c-0.5,0.5-1.3,0.8-2.2,0.8c0,0-1.3,0-1.3,0C76.3,54,76.3,47.5,76.3,47.5C76.3,47.5,76.3,47.5,76.3,47.5z"/>
	<path class="st0" d="M85,45.9l4.2,9.8h1.4l4-9.8l-2.4,0l-1.9,5.6c0,0-0.2,0.6-0.3,0.9c0-0.2-0.1-0.5-0.1-0.5c0,0-0.1-0.4-0.1-0.4
		c0,0-2.2-5.7-2.2-5.7L85,45.9L85,45.9z"/>
	<polygon class="st0" points="99.8,45.8 97.5,45.8 97.5,55.7 99.8,55.7 99.8,45.8 	"/>
	<path class="st0" d="M110.5,45.8h-6.1v9.8h6.3l0-1.6c0,0-3.9,0-4,0c0-0.1,0-2.5,0-2.6c0.1,0,3.6,0,3.6,0l0-1.6c0,0-3.6,0-3.6,0
		c0-0.1,0-2.3,0-2.4c0.1,0,3.9,0,3.9,0L110.5,45.8L110.5,45.8z"/>
	<path class="st0" d="M115.1,46.6L115.1,46.6c-0.5,0.5-0.8,1.2-0.8,1.9c0,1.1,0.6,1.9,1.8,2.6l1,0.5c0.8,0.4,1.1,0.8,1.1,1.3
		c0,0.3-0.1,0.6-0.3,0.8c-0.3,0.3-0.7,0.4-1.1,0.4c-0.4,0-1-0.1-1.4-0.3c-0.4-0.2-0.6-0.3-1-0.6l-0.1,0l0,1.9l0,0
		c0.5,0.2,0.7,0.3,1.1,0.4c0.6,0.1,1.1,0.2,1.6,0.2c2.1,0,3.5-1.2,3.5-2.9c0-1.1-0.5-1.8-1.9-2.5c0,0-0.8-0.4-0.8-0.4
		c-0.9-0.5-1.2-0.9-1.2-1.4c0-0.7,0.6-1.2,1.4-1.2c0.6,0,1.3,0.3,1.9,0.7c0,0,0.1,0.1,0.1,0.1c0,0,0.2,0.2,0.2,0.2l0-0.1
		c0-1.8,0-1.8,0-1.8c-0.4-0.2-0.7-0.3-1-0.4c-0.5-0.2-1-0.3-1.5-0.3C116.6,45.7,115.7,46,115.1,46.6z"/>
	<path class="st0" d="M125.4,47.2c-0.9,0.9-1.5,2.2-1.5,3.7c0,1.4,0.5,2.6,1.4,3.4c1,1,2.4,1.5,4.1,1.5c0.8,0,1.9-0.1,3-0.3
		c0,0,0.6-0.1,0.6-0.1l0-4.8l-3.4,0l0,1.6c0,0,1.2,0,1.2,0c0,0.1,0,1.7,0,1.7c-0.1,0-0.7,0.1-1.1,0.1c-1,0-1.9-0.3-2.5-0.9
		c-0.6-0.6-0.9-1.4-0.9-2.3c0-2,1.4-3.4,3.6-3.4c0.7,0,1.5,0.2,2.2,0.5c0,0,0.5,0.2,0.5,0.2l0-0.1l0-1.7l0,0
		c-1.2-0.5-2.1-0.6-3.2-0.6C127.8,45.7,126.4,46.2,125.4,47.2z"/>
	<path class="st0" d="M137,45.8L137,45.8l0,9.8h2.3c0,0,0-4.1,0-4.2c0.1,0,0.6,0,0.6,0c0.5,0,1,0.2,1.3,0.7c0.2,0.3,0.5,0.7,0.9,1.5
		l0.5,1l0.5,0.9l2.4,0l-0.7-1.4l-0.4-0.8l-0.7-1.3c0,0-0.4-0.6-0.4-0.6c-0.3-0.3-0.4-0.5-0.7-0.6c0,0-0.1,0-0.1-0.1
		c0.1,0,0.1,0,0.1,0c1-0.4,1.5-1.2,1.5-2.3c0-0.8-0.3-1.4-0.8-1.9c-0.5-0.5-1.4-0.9-2.3-0.9H137z M140.2,47.3c0.5,0,0.9,0.1,1.2,0.4
		c0.2,0.2,0.4,0.6,0.4,1c0,0.4-0.1,0.7-0.4,1c-0.3,0.3-0.7,0.4-1.1,0.4c0,0-0.9,0-1,0c0-0.1,0-2.7,0-2.8
		C139.3,47.3,140.2,47.3,140.2,47.3z"/>
	<path class="st0" d="M148.9,47.1c-0.9,0.9-1.4,2.2-1.4,3.7c0,1.4,0.5,2.8,1.4,3.7c0.9,0.9,2.2,1.4,3.6,1.4c3,0,5-2.1,5-5.1
		c0-1.4-0.5-2.8-1.4-3.7c-0.9-0.9-2.2-1.4-3.6-1.4C151.1,45.7,149.8,46.2,148.9,47.1z M150.7,53.2L150.7,53.2
		c-0.6-0.6-0.9-1.5-0.9-2.5c0-1.9,1.1-3.2,2.8-3.2c0.7,0,1.4,0.3,1.9,0.7c0.6,0.6,0.9,1.5,0.9,2.5c0,1-0.3,1.8-0.9,2.4
		c-0.5,0.5-1.1,0.8-1.9,0.8C151.8,54,151.1,53.7,150.7,53.2z"/>
	<path class="st0" d="M167.7,45.8h-6.1v9.8l6.3,0l0-1.6c0,0-3.9,0-4,0c0-0.1,0-2.5,0-2.6c0.1,0,3.6,0,3.6,0l0-1.6c0,0-3.6,0-3.6,0
		c0-0.1,0-2.3,0-2.4c0.1,0,3.9,0,3.9,0L167.7,45.8L167.7,45.8z"/>
	<path class="st0" d="M172,45.8L172,45.8l0,9.8h2.3c0,0,0-3.9,0-4c0.1,0,1.7,0,1.7,0c1.9,0,3.2-1.1,3.2-2.9c0-0.8-0.3-1.5-0.8-2
		c-0.6-0.6-1.4-0.9-2.3-0.9H172z M175.2,47.4c0.5,0,1,0.1,1.2,0.4c0.2,0.2,0.4,0.6,0.4,1c0,0.4-0.1,0.7-0.3,1
		c-0.3,0.3-0.7,0.4-1.2,0.4c0,0-1,0-1,0c0-0.1,0-2.7,0-2.8C174.4,47.4,175.2,47.4,175.2,47.4z"/>
</g>
</svg>
