<?xml version="1.0" encoding="UTF-8"?>
<!-- Generator: Adobe Illustrator 16.0.4, SVG Export Plug-In . SVG Version: 6.00 Build 0)  -->
<!DOCTYPE svg PUBLIC "-//W3C//DTD SVG 1.1//EN" "http://www.w3.org/Graphics/SVG/1.1/DTD/svg11.dtd">
<svg version="1.1" id="Laag_1" xmlns="http://www.w3.org/2000/svg" xmlns:xlink="http://www.w3.org/1999/xlink" x="0px" y="0px" width="1190.55px" height="400px" viewBox="0 0 1190.55 400" enable-background="new 0 0 1190.55 400" xml:space="preserve">
<g>
	<g>
		<path fill="#EE8712" d="M223.432,234.162c-3.43,0-7.349-0.98-9.799-3.43l-0.979-0.98l12.738-48.014l16.168,5.39L223.432,234.162z     M295.942,120.005C295.942,120.005,295.452,120.005,295.942,120.005c6.369-7.349,12.738-15.188,12.738-23.517    c0-14.698-13.718-26.457-61.242-26.457c-47.523,0-116.115,21.067-116.115,21.067l0.979,1.47    c51.444-6.369,95.049-8.819,118.075-7.349c14.698,0.979,41.646,4.899,43.604,17.638c0.49,6.369-1.959,11.269-4.409,16.168    c-8.818-1.47-20.087-1.47-38.705,1.47c-35.275,5.39-95.538,32.826-183.237,29.886l0.98,1.471c0,0,38.705,8.818,83.779,5.389    c38.705-2.449,70.062-12.738,92.599-16.658c21.557-3.429,46.544-4.898,48.993,5.39c2.45,12.738-12.738,27.437-34.785,24.987    c-13.719-1.47-28.906-6.369-37.726-9.799l-8.329-2.939c0,0,5.39,19.107,4.899,25.967c-0.979,5.389-2.449,12.248-2.449,12.248    l-6.369,26.457c-1.47,0-8.819,3.429-12.738,7.349c-0.98,0.979-1.47,1.47-1.47,2.45c-0.98,0.979,0,1.47,0,2.449l0.979,0.979    c0.979,0,0.979,0.98,1.47,0.98c4.899,1.47,13.719,1.47,13.719,1.47h32.825c2.45,0,8.819,0,9.799,3.43    c0.98,2.449-1.47,3.919-3.919,4.899c-3.92,2.449-7.35,3.919-11.269,6.369c-0.98,0.979-3.92,1.47-4.899,3.43    c-0.98,1.47,0,5.389-1.47,7.349c-2.45,3.92-7.35,2.45-8.819,4.899c-0.979,2.45,0.979,3.92-1.47,6.369    c-1.47,1.47-3.92,2.45-6.369,2.45c-3.43,0.979-3.43,0-3.92,2.449c-0.979,2.45,0,5.39-1.47,7.839    c-3.919,6.369-22.537,6.369-28.906,7.35c-13.718,1.47-31.355,1.47-44.095-4.899c10.289,11.269,30.377,12.738,44.095,12.738    c2.45,0,4.899,0,7.35,0c-3.92,16.168-4.899,27.437-1.47,27.437c3.919,0,10.288-12.249,17.638-29.887    c1.47-0.979,9.799-0.979,12.248-1.47c3.43-1.47,5.39-3.919,7.349-7.349c0.98-1.47,0.98-4.899,1.471-5.39    c2.449-3.43,7.839-3.43,10.288-7.349c1.47-2.45,1.47-3.43,3.43-4.899c1.47-1.47,3.43-1.47,4.899-3.43    c3.43-3.43,2.45-7.35,4.899-9.799c1.47-1.47,4.899-3.43,7.349-3.92c6.37-3.43,16.658-7.839,13.719-17.638    c-1.47-11.269-21.067-10.288-29.887-10.288l0,0l16.168-32.336c6.37-13.719,52.424-34.786,57.813-50.464    C317.5,140.093,316.03,125.395,295.942,120.005"/>
		<path fill="#EE8712" d="M249.398,102.368v-1.959c-23.517-1.47-73.001,3.919-121.505,9.799    c-64.182,7.839-78.88,6.369-126.894,3.919l0.979,1.47c0,0,36.745,11.269,70.551,12.738    C135.243,131.274,193.056,111.187,249.398,102.368"/>
		<path fill="#EE8712" d="M178.848,225.342c6.369-4.899,13.718-7.839,20.087-12.738c-13.718,0-24.007,6.369-35.275,12.738    c-12.248,7.35-24.987,5.39-37.726,9.799c6.369,2.449,16.168,3.43,21.558,3.92C159.25,241.02,169.049,232.202,178.848,225.342"/>
		<path fill="#EE8712" d="M1159.213,283.155V246.41c0.98-2.449,1.471-4.899,3.43-5.39c1.471-1.47,3.92-2.449,6.369-2.449    c3.43,0,5.39,0.979,6.369,3.43c0.98,2.449,1.471,5.389,1.471,9.799v32.336h14.697V250.33c0-4.899,0-8.819-0.979-12.249    s-1.47-5.389-3.43-7.349s-3.429-3.43-5.389-3.92c-2.45-0.979-4.899-0.979-7.84-0.979c-3.919,0-7.349,0.979-9.798,2.449    c-2.45,1.47-4.9,3.92-6.37,7.35c-1.47-3.43-3.429-5.39-5.389-7.35c-2.45-1.47-5.39-2.449-8.819-2.449    c-3.919,0-7.839,0.979-10.289,2.449c-2.449,1.47-4.898,3.92-6.369,6.369h-0.979l-1.47-7.349h-11.269v56.343h14.698v-37.726    c0.979-2.449,2.449-3.919,3.919-5.389s3.92-2.45,6.37-2.45c3.429,0,4.898,0.98,6.369,3.43c0.979,2.45,1.47,5.39,1.47,11.269    v30.376h13.718l0,0H1159.213z M1067.595,241.02c2.45-2.449,4.899-3.919,8.819-3.919c3.919,0,7.349,1.47,8.818,4.899    c1.471,3.43,2.45,7.349,2.45,12.738c0,6.369-0.979,10.289-3.43,12.738c-1.47,2.449-4.899,3.92-8.819,3.92    c-2.449,0-3.919-0.98-5.389-1.471c-1.47-0.979-2.45-2.449-3.43-3.919c-0.98-1.47-1.47-3.43-2.45-5.39    c-0.979-2.449-0.979-3.919-0.979-7.349C1064.655,248.37,1065.146,244.45,1067.595,241.02 M1050.938,266.987    c0.979,3.92,2.449,7.35,4.899,9.799c2.449,2.45,4.899,4.899,7.839,6.369c3.43,1.47,7.349,2.45,12.248,2.45    c8.819,0,15.188-2.45,19.107-7.839c4.899-4.899,7.35-12.738,7.35-22.537c0-4.899-0.98-8.819-1.47-12.249    c-0.98-3.919-2.45-7.349-4.899-9.799c-2.45-2.449-4.899-4.899-7.84-6.369c-3.429-1.47-7.349-2.449-12.248-2.449    c-8.818,0-15.188,2.449-20.088,7.839c-4.898,4.899-7.349,12.738-7.349,22.537C1049.467,259.148,1049.957,263.557,1050.938,266.987     M1041.139,268.457c-1.47,0.98-3.43,1.47-4.899,2.45c-1.47,0.979-3.92,0.979-6.369,0.979c-2.45,0-3.92-0.979-5.39-1.47    c-1.47-0.979-3.43-2.449-3.92-3.43c-0.979-1.47-1.47-3.43-2.449-5.389c-0.98-2.45-0.98-3.92-0.98-6.369    c0-5.39,0.98-10.289,3.43-12.739c2.45-2.449,4.899-3.919,9.799-3.919c2.45,0,3.92,0,5.39,0.979c1.47,0.98,3.43,0.98,4.899,1.47    l3.43-12.248c-2.45-0.979-3.92-1.47-7.35-2.45c-2.449-0.979-5.389-0.979-9.799-0.979c-7.839,0-14.697,2.45-18.617,7.839    c-3.92,4.899-6.369,12.738-6.369,22.537c0,4.899,0.979,8.819,1.47,12.249c0.979,3.919,2.45,7.349,3.919,9.799    c1.471,2.449,4.9,4.899,7.84,6.369c3.43,1.47,7.349,2.449,11.269,2.449c3.43,0,6.369-0.979,9.799-1.47    c3.43-0.979,5.389-2.449,7.839-3.919L1041.139,268.457z M977.937,282.175c1.47,1.47,3.919,2.449,6.369,2.449    c3.43,0,4.899-0.979,6.369-2.449s2.449-3.92,2.449-6.369c0-2.45-0.979-4.899-2.449-6.369s-3.92-2.45-6.369-2.45    c-2.45,0-4.899,0.98-6.369,2.45s-2.45,3.919-2.45,6.369C975.486,278.255,975.977,280.706,977.937,282.175"/>
		<path fill="#1E3685" d="M920.613,287.075c-7.839,0-15.188-0.98-22.537-3.43c-7.349-2.45-12.738-3.92-16.658-7.35h-0.979    l8.819-23.517l0.979,0.979c3.43,1.471,7.839,3.92,13.718,5.39c5.39,1.47,11.27,2.45,16.658,2.45c3.92,0,7.35-0.98,9.799-2.45l0,0    c2.45-1.47,3.43-3.919,3.43-7.349c0-2.45-0.979-4.899-3.43-6.369c-2.449-1.47-5.389-3.43-8.818-4.899    c-3.92-1.47-7.84-3.43-12.249-4.899c-4.899-1.47-8.818-3.92-12.738-6.369c-3.919-2.45-7.349-6.369-9.799-10.289    c-2.449-3.92-3.919-9.799-3.919-16.658c0-11.269,3.429-20.087,10.288-25.967c6.369-5.389,16.168-8.818,28.906-8.818    c8.819,0,16.168,0.979,23.518,2.449c7.349,1.47,12.248,3.92,16.168,6.369h0.979l-7.349,22.537h-0.98    c-3.429-1.47-7.839-2.449-12.738-3.919s-10.288-2.45-15.188-2.45c-7.839,0-12.248,3.43-12.248,8.819c0,2.449,0.98,3.919,3.43,5.39    c2.449,1.47,5.39,3.429,8.818,4.899c3.43,1.47,7.35,3.429,12.249,4.899c4.899,1.47,8.819,3.919,12.738,6.369    c3.92,2.449,7.349,6.369,9.799,10.288c2.45,3.92,3.92,9.799,3.92,16.658c0,11.269-3.92,21.067-11.269,27.437    C946.58,283.645,935.802,287.075,920.613,287.075z M636.939,287.075c-8.819,0-16.658-1.47-23.518-3.92    c-6.369-3.43-12.248-7.349-16.657-12.248c-4.41-4.899-7.839-11.269-9.799-19.107l0,0c-2.45-7.35-3.43-15.188-3.43-24.008    c0-19.107,4.899-33.806,13.718-44.094c9.799-10.289,22.537-15.188,39.195-15.188c8.819,0,16.658,1.47,23.518,3.92    c6.369,3.43,12.248,7.349,16.657,12.248c3.92,4.899,7.839,11.269,9.799,19.107c2.45,7.35,3.43,15.188,3.43,24.007    c0,19.108-4.899,33.807-13.718,44.095C667.315,282.175,653.598,287.075,636.939,287.075z M484.078,287.075    c-23.517,0-44.094-7.839-59.282-22.537c-15.188-15.188-24.007-35.275-24.007-58.793c0-21.557,8.819-42.624,24.007-57.812    c15.188-15.188,36.745-23.517,59.282-23.517c24.008,0,45.075,7.839,61.243,23.517c14.697,14.698,22.537,35.275,22.537,57.812    c0,21.558-8.819,42.625-24.008,57.812C528.173,279.236,507.596,287.075,484.078,287.075z M865.74,283.645h-30.376v-63.692    c0-8.818-0.979-15.188-2.449-19.107c-1.471-3.919-5.39-6.369-11.269-6.369c-4.899,0-8.819,1.47-12.249,3.92    c-3.43,2.449-4.899,6.369-6.369,11.269v73.98h-30.376v-60.752c0-10.289-0.98-17.639-3.43-21.558c-1.47-3.92-5.39-5.39-11.269-5.39    c-4.899,0-8.819,1.47-12.249,3.92c-3.429,2.449-5.389,5.389-7.349,10.288v74.961H707.98V170.469h24.007l3.43,14.698    c3.43-4.899,7.839-8.819,12.738-12.249c5.39-3.919,12.248-5.389,21.067-5.389c7.349,0,13.719,1.47,17.638,4.899    c3.92,2.449,7.839,7.349,10.289,13.718c3.43-4.899,7.349-9.799,12.738-12.738c5.39-3.43,12.248-5.389,20.087-5.389    c6.37,0,12.249,0.979,16.168,2.449c4.9,1.47,7.84,3.92,11.27,7.839c2.449,3.92,4.898,8.819,6.369,15.188    c1.47,6.369,2.449,13.718,2.449,23.517v67.611h-0.49V283.645z M484.078,149.402c-25.967,0-52.423,21.067-52.423,56.343    c0,33.806,21.067,56.343,52.423,56.343c29.887,0,52.424-24.007,52.424-56.343C536.502,172.918,514.455,149.402,484.078,149.402z     M636.939,193.986c-6.369,0-12.249,2.45-16.168,7.84c-3.92,4.899-5.39,13.718-5.39,25.967c0,4.899,0.98,9.798,1.47,13.718    c0.49,3.92,2.45,7.839,3.92,10.289c1.47,3.43,3.92,5.389,6.369,7.349c2.449,1.47,6.369,2.45,9.799,2.45    c7.349,0,12.738-2.45,16.168-7.84c3.43-5.389,5.39-13.718,5.39-25.966c0-10.289-1.47-18.618-4.899-24.008    C650.657,196.926,644.778,193.986,636.939,193.986z"/>
	</g>
</g>
</svg>