<?xml version="1.0" encoding="utf-8"?>
<!-- Generator: Adobe Illustrator 24.3.0, SVG Export Plug-In . SVG Version: 6.00 Build 0)  -->
<svg version="1.1" id="Laag_1" xmlns="http://www.w3.org/2000/svg" xmlns:xlink="http://www.w3.org/1999/xlink" x="0px" y="0px"
	 viewBox="0 0 184.6 60.4" style="enable-background:new 0 0 184.6 60.4;" xml:space="preserve">
<style type="text/css">
	.st0{fill:#36CCC8;}
	.st1{fill:#FFFFFF;}
	.st2{opacity:0.5;}
	.st3{opacity:0.75;fill:#FFFFFF;enable-background:new    ;}
	.st4{opacity:0.25;}
</style>
<path class="st0" d="M93.4,11.9L81.2,42.7h-7.7L61,11.9h8.9l7.5,20.6l7.4-20.6H93.4z"/>
<path class="st0" d="M97.9,11.9h8.3v30.8h-8.3V11.9z M97.9,0.1h8.3v7.7h-8.3V0.1z"/>
<path class="st0" d="M131.8,42.7l-6.1-10.2l-6.3,10.2h-9.2l10.5-15.8l-9.8-15h9.4l5.3,8.9l5.7-8.9h9.2l-9.9,14.6l10.6,16.2
	C141.2,42.7,131.8,42.7,131.8,42.7z"/>
<path class="st0" d="M162.8,42.7l-6.1-10.2l-6.3,10.2h-9.2l10.5-15.8l-9.8-15h9.4l5.3,8.9l5.7-8.9h9.2l-9.9,14.6l10.6,16.2
	C172.2,42.7,162.8,42.7,162.8,42.7z"/>
<path class="st0" d="M175.7,33.8h8.8v8.9h-8.8V33.8z"/>
<circle class="st0" cx="27.3" cy="27.4" r="27.3"/>
<g>
	<g>
		<path class="st1" d="M19.7,32.1c0-0.1,0-0.1,0-0.2C19.7,32,19.7,32.1,19.7,32.1z"/>
		<path class="st1" d="M20,31.3c0,0,0-0.1,0.1-0.1C20,31.2,20,31.3,20,31.3z"/>
		<path class="st1" d="M19.8,31.9v-0.1C19.8,31.8,19.8,31.8,19.8,31.9z"/>
		<path class="st1" d="M19.9,31.6c0,0,0-0.1,0.1-0.1C19.9,31.5,19.9,31.5,19.9,31.6z"/>
		<path class="st1" d="M20.2,30.8c0,0,0-0.1,0.1-0.1C20.3,30.7,20.3,30.8,20.2,30.8z"/>
		<path class="st1" d="M20.1,31.1c0,0,0-0.1,0.1-0.1C20.1,31,20.1,31,20.1,31.1z"/>
		<path class="st1" d="M20.4,30.6c0,0,0-0.1,0.1-0.1C20.4,30.5,20.4,30.5,20.4,30.6z"/>
		<path class="st1" d="M19.5,33.6c0,0.9,0.1,1.8,0.5,2.6C19.6,35.4,19.5,34.5,19.5,33.6z"/>
		<path class="st1" d="M20.9,29.8L20.9,29.8L20.9,29.8z"/>
		<path class="st1" d="M20.7,30.1C20.7,30,20.8,30,20.7,30.1C20.8,30,20.7,30,20.7,30.1z"/>
		<path class="st1" d="M20.5,30.3c0,0,0-0.1,0.1-0.1C20.6,30.2,20.6,30.3,20.5,30.3z"/>
		<path class="st1" d="M20.4,37c0-0.1-0.1-0.2-0.1-0.2S20.3,36.9,20.4,37z"/>
		<path class="st1" d="M20.5,37.2c-0.1-0.1-0.1-0.2-0.1-0.2S20.5,37.1,20.5,37.2z"/>
		<path class="st1" d="M20.7,37.4c-0.1-0.1-0.1-0.1-0.2-0.2C20.6,37.3,20.6,37.3,20.7,37.4z"/>
		<path class="st1" d="M20.8,37.6c-0.1-0.1-0.1-0.1-0.2-0.2C20.7,37.5,20.8,37.6,20.8,37.6z"/>
		<path class="st1" d="M20.2,36.7c0-0.1-0.1-0.2-0.1-0.2S20.2,36.6,20.2,36.7z"/>
		<path class="st1" d="M19.5,33c0-0.1,0-0.1,0-0.2C19.6,32.8,19.5,32.9,19.5,33z"/>
		<path class="st1" d="M19.6,32.4c0-0.1,0-0.1,0-0.2C19.7,32.3,19.6,32.4,19.6,32.4z"/>
		<path class="st1" d="M19.6,32.7c0-0.1,0-0.1,0-0.2C19.6,32.6,19.6,32.6,19.6,32.7z"/>
		<path class="st1" d="M19.5,33.2c0-0.1,0-0.1,0-0.2C19.5,33.1,19.5,33.2,19.5,33.2z"/>
		<path class="st1" d="M20.1,36.5c0-0.1-0.1-0.2-0.1-0.2S20.1,36.4,20.1,36.5z"/>
		<path class="st1" d="M19.5,33.5c0-0.1,0-0.1,0-0.2C19.5,33.4,19.5,33.5,19.5,33.5z"/>
		<g class="st2">
			<path class="st1" d="M17.1,25.2L17.1,25.2c2.2-2.4,5.9-2.4,8.2,0L21.2,21c-2.3-2.3-5.9-2.3-8.2,0l0,0c-2.2,2.4-2.2,6.2,0,8.5
				l4.1,4.2C14.8,31.4,14.8,27.6,17.1,25.2z"/>
			<path class="st1" d="M37.5,21L37.5,21c-2.3-2.3-5.9-2.3-8.2,0l-4.1,4.2c2.2-2.3,5.9-2.3,8.1,0l0,0c2.3,2.3,2.3,6.2,0,8.5l4.1-4.3
				C39.7,27.1,39.7,23.3,37.5,21z"/>
		</g>
		<g>
			<path class="st3" d="M21.2,29.5l4.1-4.3l0,0l0,0c-2.3-2.3-5.9-2.3-8.2,0l0,0c-2.2,2.4-2.2,6.2,0,8.5l3.7,3.9
				C18.9,35.3,19,31.7,21.2,29.5z"/>
			<path class="st3" d="M33.4,25.3L33.4,25.3c-2.2-2.3-5.9-2.3-8.1,0l4.1,4.2c2.3,2.3,2.3,6.2,0,8.5l4.1-4.2
				C35.7,31.4,35.6,27.6,33.4,25.3z"/>
		</g>
		<path class="st1" d="M29.3,38L29.3,38c2.2-2.4,2.2-6.2,0-8.5l-4.1-4.2l0,0l-4.1,4.3c-2.1,2.2-2.2,5.8-0.3,8.1l0.3,0.3
			C23.4,40.3,27.1,40.3,29.3,38z"/>
		<g class="st4">
			<path class="st1" d="M41.6,16.7L41.6,16.7c-2.3-2.3-5.9-2.3-8.2,0l-3.6,3.8c2.3-1.9,5.6-1.7,7.6,0.5l0,0c2.3,2.3,2.3,6.2,0,8.5
				L37,29.9c0.2-0.1,0.3-0.3,0.5-0.5l4.1-4.3C43.9,22.9,43.9,19.1,41.6,16.7z"/>
		</g>
	</g>
</g>
</svg>
