<?xml version="1.0" encoding="utf-8"?>
<!-- Generator: Adobe Illustrator 21.0.0, SVG Export Plug-In . SVG Version: 6.00 Build 0)  -->
<svg version="1.1" id="Layer_1" xmlns="http://www.w3.org/2000/svg" xmlns:xlink="http://www.w3.org/1999/xlink" x="0px" y="0px"
	 viewBox="0 0 899.7 129.1" style="enable-background:new 0 0 899.7 129.1;" xml:space="preserve">
<style type="text/css">
	.st0{fill:#3F3F42;}
	.st1{fill:#D81C5B;}
</style>
<g id="Backgrounds">
</g>
<g id="Logo_x27_s">
	<g>
		<path class="st0" d="M76.2,98c0,1.9-1.6,3.5-3.5,3.5H4.5l0,0H4.4c-1.9,0-3.5-1.6-3.5-3.5c0-0.8,0.3-1.5,0.7-2.1
			c0-0.1,0.1-0.1,0.1-0.1l64-87.9H4.5C2.6,7.9,1,6.3,1,4.4s1.6-3.5,3.5-3.5h68.3c1.9,0,3.5,1.6,3.5,3.5c0,0.8-0.3,1.6-0.8,2.2
			c0,0,0,0.1-0.1,0.1L11.2,94.4h61.5C74.7,94.4,76.2,95.9,76.2,98z"/>
		<path class="st0" d="M126.6,30.8c18.6,0,33.5,16.2,33.5,35.4s-14.9,35.4-33.5,35.4c-18.5,0-33.5-16.2-33.5-35.4
			C93.1,46.9,108.2,30.8,126.6,30.8z M126.6,94.6c14.4,0,26.6-12.7,26.6-28.4s-12.1-28.6-26.6-28.6S100,50.5,100,66.2
			C100.1,81.9,112.2,94.6,126.6,94.6z"/>
		<path class="st0" d="M307,95.9c0,18.3-14.9,33.2-33.4,33.2c-5.2,0-10.1-1.3-14.7-3.3c-1.4-1-2.3-3-1.4-4.6
			c0.9-1.9,2.9-2.6,4.6-1.6c3.6,1.7,7.2,2.6,11.6,2.6c14.7,0,26.4-11.7,26.4-26.3v-8.7c-5.9,8.5-15.6,13.9-26.4,13.9
			c-18.5,0-33.2-15.7-33.2-35.2c0-19.1,14.7-35.1,33.2-35.1c10.8,0,20.5,5.5,26.4,13.9V34.2c0-1.9,1.6-3.5,3.6-3.5
			c1.7,0,3.3,1.6,3.3,3.5V95.9z M300,65.8c0-15.7-11.8-28.2-26.4-28.2c-14.4,0-26.3,12.4-26.3,28.2c0,15.9,11.8,28.4,26.3,28.4
			C288.2,94.3,300,81.7,300,65.8z"/>
		<path class="st0" d="M335.4,66.3c0-19.6,15.3-35.5,34.4-35.5c18.2,0,32.6,14.4,34.1,32.9v0.1v0.4c0,1.9-1.6,3.2-3.5,3.2h-58
			c0.7,15.5,12.9,27.1,27.4,27.1c9.4,0,18-4.9,22.8-12.9c1-1.7,3.2-2,4.6-1.2c1.6,1.2,2.2,3.2,1.2,4.9c-6.1,9.7-16.6,16-28.6,16
			C350.7,101.5,335.4,85.6,335.4,66.3z M342.8,60.6h53.6c-2.3-13.3-13.6-23-26.6-23C356.5,37.7,345.4,47.2,342.8,60.6z"/>
		<path class="st0" d="M429.4,3.9c0-1.9,1.6-3.5,3.5-3.5c2,0,3.6,1.6,3.6,3.5V98c0,1.9-1.6,3.5-3.6,3.5c-1.9,0-3.5-1.6-3.5-3.5V3.9z
			"/>
		<path class="st0" d="M494.5,30.8c18.6,0,33.5,16.2,33.5,35.4s-14.9,35.4-33.5,35.4c-18.5,0-33.5-16.2-33.5-35.4
			C461,46.9,476,30.8,494.5,30.8z M494.5,94.6c14.4,0,26.6-12.7,26.6-28.4S509,37.6,494.5,37.6c-14.4,0-26.6,12.9-26.6,28.6
			C468,81.9,480.1,94.6,494.5,94.6z"/>
		<path class="st0" d="M584.8,30.8c18.6,0,33.5,16.2,33.5,35.4s-14.9,35.4-33.5,35.4c-18.5,0-33.5-16.2-33.5-35.4
			C551.3,46.9,566.3,30.8,584.8,30.8z M584.8,94.6c14.4,0,26.6-12.7,26.6-28.4s-12.1-28.6-26.6-28.6c-14.4,0-26.6,12.9-26.6,28.6
			S570.3,94.6,584.8,94.6z"/>
		<path class="st0" d="M639.9,86.8c1.2-1.4,3.3-1.7,4.9-0.4c4.9,3.6,12.7,8.2,21.7,8.2c5.5,0,10.3-1.7,13.4-4.3
			c3.5-2.3,5.3-5.5,5.3-8.7c-0.1-3.3-1.4-5.6-5.1-8.7c-3-2.3-8.1-4-15-5.2l-0.3-0.1c-6.4-1.2-12-2.6-16-5.5
			c-4.5-2.6-7.7-7.2-7.7-12.7c0-5.6,3.2-10.5,7.7-13.9c4.2-2.9,10.1-4.8,17.3-4.8c9.1,0,15.6,4.2,21.1,7.7c1.6,1.2,2,3.3,1,4.9
			s-3.2,2-4.8,1c-5.2-3.5-10.4-7.1-17.3-7.1c-5.8,0-10.4,1.6-13.4,4c-2.9,2.3-4.5,5.2-4.5,8.1s1.3,4.9,4,7.1
			c3.2,2.2,7.9,3.9,14.4,4.9h0.3c6.8,1,12.3,3,17.2,5.8c4.6,3,7.9,8.5,7.9,14.4c0,5.9-3.3,10.7-8.1,14.3c-4.9,3.6-10.7,5.6-17.6,5.6
			c-11.4-0.1-20.4-5.5-26.1-10.1C638.9,90.1,638.8,88.2,639.9,86.8z"/>
		<path class="st0" d="M710.8,66c0-19.6,16.2-35.2,36.4-35.2c8.4,0,16.3,2.9,22.5,7.8c1.4,1,1.7,3.2,0.4,4.8
			c-1.2,1.3-3.2,1.7-4.8,0.6c-5.1-4-11.4-6.4-18.2-6.4c-16.5,0-29.5,12.9-29.5,28.4c0,15.9,13,28.6,29.5,28.6
			c6.8,0,13.1-2.3,18.2-6.2c1.6-1.2,3.6-0.7,4.8,0.6c1.3,1.6,1,3.8-0.7,5.1c-5.9,4.6-13.9,7.5-22.2,7.5
			C727,101.5,710.8,85.9,710.8,66z"/>
		<path class="st0" d="M850.3,58.6c0-12.4-10.1-20.8-22.5-20.8c-12.3,0-22.4,8.4-22.4,20.8V98v0.4c0,0.3-0.1,0.4-0.1,0.6
			c-0.1,0.3-0.1,0.4-0.3,0.6c-0.4,0.9-1.2,1.4-2.2,1.7c0,0-0.1,0.1-0.3,0.1h-0.3h-0.4c-1,0-2-0.4-2.7-1.2c-0.3-0.4-0.4-0.7-0.6-1.2
			c-0.1-0.4-0.1-0.7-0.1-1.2V58.4v-1.2V3.9c0-1.9,1.6-3.5,3.5-3.5c2,0,3.6,1.6,3.6,3.5v37.3c5.3-6.4,13.4-10.4,22.4-10.4
			c16.3,0,29.6,11.6,29.6,27.9V98c0,1.9-1.6,3.5-3.6,3.5c-1.9,0-3.5-1.6-3.5-3.5V58.6H850.3z"/>
		<path class="st1" d="M892.5,87.1c4,0,7.2,3.2,7.2,7.2s-3.2,7.2-7.2,7.2s-7.2-3.2-7.2-7.2S888.4,87.1,892.5,87.1z"/>
		<path class="st0" d="M220.7,34.2c0,1.9-1.5,3.4-3.4,3.4c-2.6,0-5.2,0.4-7.6,1.2c-8.3,2.7-15,9.8-17.7,18.7
			c-0.8,2.7-1.3,5.6-1.3,8.7V98c0,2-1.6,3.5-3.3,3.5c-2,0-3.6-1.4-3.6-3.5V34.3c0-2,1.6-3.5,3.6-3.5c1.7,0,3.3,1.4,3.3,3.5v10.5
			c6.1-8.4,15.6-13.9,26.4-14c0.1,0,0.1,0,0.2,0C219.2,30.8,220.7,32.3,220.7,34.2z"/>
	</g>
</g>
</svg>
