<?xml version="1.0" encoding="utf-8"?>
<!-- Generator: Adobe Illustrator 24.3.0, SVG Export Plug-In . SVG Version: 6.00 Build 0)  -->
<svg version="1.1" id="Layer_1" xmlns="http://www.w3.org/2000/svg" xmlns:xlink="http://www.w3.org/1999/xlink" x="0px" y="0px"
	 viewBox="0 0 1980.6 901" style="enable-background:new 0 0 1980.6 901;" xml:space="preserve">
<style type="text/css">
	.st0{opacity:0.7;fill:#2D1582;enable-background:new    ;}
	.st1{opacity:0.11;fill:none;stroke:#FF9900;stroke-width:3;stroke-miterlimit:10;}
</style>
<circle class="st0" cx="1696.9" cy="618.5" r="1.7"/>
<circle class="st0" cx="1733.7" cy="618.5" r="1.7"/>
<circle class="st0" cx="1770.6" cy="618.5" r="1.7"/>
<circle class="st0" cx="1807.5" cy="618.5" r="1.7"/>
<circle class="st0" cx="1844.4" cy="618.5" r="1.7"/>
<circle class="st0" cx="1844.4" cy="655.4" r="1.7"/>
<circle class="st0" cx="1881.2" cy="655.4" r="1.7"/>
<circle class="st0" cx="1881.2" cy="618.5" r="1.7"/>
<circle class="st0" cx="1696.9" cy="655.4" r="1.7"/>
<circle class="st0" cx="1733.7" cy="655.4" r="1.7"/>
<circle class="st0" cx="1770.6" cy="655.4" r="1.7"/>
<circle class="st0" cx="1807.5" cy="655.4" r="1.7"/>
<circle class="st0" cx="1696.9" cy="692.3" r="1.7"/>
<circle class="st0" cx="1733.7" cy="692.3" r="1.7"/>
<circle class="st0" cx="1770.6" cy="692.3" r="1.7"/>
<circle class="st0" cx="1807.5" cy="692.3" r="1.7"/>
<circle class="st0" cx="1844.4" cy="692.3" r="1.7"/>
<circle class="st0" cx="1881.2" cy="692.3" r="1.7"/>
<circle class="st0" cx="1696.9" cy="729.1" r="1.7"/>
<circle class="st0" cx="1733.7" cy="729.1" r="1.7"/>
<circle class="st0" cx="1770.6" cy="729.1" r="1.7"/>
<circle class="st0" cx="1807.5" cy="729.1" r="1.7"/>
<circle class="st0" cx="1844.4" cy="729.1" r="1.7"/>
<circle class="st0" cx="1881.2" cy="729.1" r="1.7"/>
<circle class="st0" cx="1696.9" cy="766" r="1.7"/>
<circle class="st0" cx="1733.7" cy="766" r="1.7"/>
<circle class="st0" cx="1770.6" cy="766" r="1.7"/>
<circle class="st0" cx="1807.5" cy="766" r="1.7"/>
<circle class="st0" cx="1844.4" cy="766" r="1.7"/>
<circle class="st0" cx="1881.2" cy="766" r="1.7"/>
<circle class="st0" cx="1696.9" cy="803" r="1.7"/>
<circle class="st0" cx="1733.7" cy="803" r="1.7"/>
<circle class="st0" cx="1770.6" cy="803" r="1.7"/>
<circle class="st0" cx="1807.5" cy="803" r="1.7"/>
<circle class="st0" cx="1844.4" cy="803" r="1.7"/>
<circle class="st0" cx="1881.2" cy="803" r="1.7"/>
<circle class="st1" cx="199.3" cy="204.5" r="199.3"/>
<circle class="st1" cx="583.6" cy="762.4" r="118.5"/>
</svg>
