<svg xmlns="http://www.w3.org/2000/svg" viewBox="0 0 286.7 82.3"><style type="text/css">  
	.st0{fill:#F08327;}
	.st1{fill:#D21951;}
	.st2{fill:#7D6957;}
	.st3{fill:none;stroke:#7B6756;stroke-miterlimit:10;}
</style><path class="st0" d="M20.6 10.3c0 5.7-4.6 10.3-10.3 10.3S0 16 0 10.3C0 4.6 4.6 0 10.3 0S20.6 4.6 20.6 10.3"/><path class="st1" d="M276.3 10.3c0 5.7-4.6 10.3-10.3 10.3 -5.7 0-10.3-4.6-10.3-10.3C255.7 4.6 260.3 0 266 0 271.7 0 276.3 4.6 276.3 10.3"/><path class="st2" d="M12.9 68.6H6.2c0-1.5 0.1-3.4 0.1-6.8 0-3.4 0.1-6.3 0.1-8.5 0-2 0-4.1 0-6.4 0-2.3-0.1-2.8-0.1-14l6.5 0c-0.1 10.8 0 11 0 13.4 0 2.4-0.1 4.5-0.1 6.4 0 4.4 0 8 0.1 10.6C12.9 65.9 12.9 67.3 12.9 68.6"/><path class="st3" d="M12.9 68.6H6.2c0-1.5 0.1-3.4 0.1-6.8 0-3.4 0.1-6.3 0.1-8.5 0-2 0-4.1 0-6.4 0-2.3-0.1-2.8-0.1-14l6.5 0c-0.1 10.8 0 11 0 13.4 0 2.4-0.1 4.5-0.1 6.4 0 4.4 0 8 0.1 10.6C12.9 65.9 12.9 67.3 12.9 68.6z"/><path class="st2" d="M97.6 68.6h-7.3c0-0.2 0.1-1.5 0.1-4 0-2.4 0.1-4.7 0.1-6.9 0-0.8 0-2.2 0-4.2 0-1.9 0-3.4-0.1-4.4 -0.1-2.3-0.8-3.8-2.2-4.7 -1.4-0.9-3.5-1.3-6.4-1.3 -1.7 0-3.7 0.3-6 0.8 -2.3 0.5-5 1.3-7.9 2.4 0 0.1 0 0.3 0 0.6 0 0.3 0 0.7 0 1.1 0 1.5 0 3.1 0 4.7 0 1.6 0 3.1 0 4.5 0 3.1 0 5.8 0.1 7.9 0.1 2.1 0.1 3.3 0.1 3.5h-7.3c0-0.2 0-1.4 0.1-3.4 0.1-2.1 0.1-4.5 0.1-7.4 0-0.9 0-2.4 0-4.3 0-1.9 0-3.3-0.1-4.2 0-0.8-0.2-1.6-0.4-2.4 -0.2-0.8-0.6-1.4-1.2-1.9 -0.6-0.6-1.5-1-2.5-1.3 -1-0.3-2.5-0.4-4.4-0.4 -1.7 0-3.7 0.3-6.1 0.9 -2.3 0.6-5 1.5-8 2.7 0 0.3 0 1.5 0 3.6 0 2.1 0 3.8 0 5.1 0 2.2 0 4.9 0.1 8.1 0.1 3.1 0.1 4.8 0.1 5h-7.3c0-0.2 0-1.3 0.1-3.3 0.1-2.1 0.1-5.4 0.1-10.2 0-1.5 0-3.6 0-6.3 0-2.6-0.1-5.6-0.2-8.9h7.2l0 3.3 0 0c2.1-0.9 4.7-1.8 7.8-2.7 3.1-0.9 5.9-1.3 8.3-1.3 3 0 5.5 0.4 7.6 1.2 2 0.8 3.5 1.8 4.3 2.9h0.1c3.5-1.3 6.8-2.4 9.8-3.1 3-0.7 5.5-1 7.6-1 4.3 0 7.6 0.8 10 2.3 2.4 1.5 3.6 3.6 3.6 6.2 0 2 0 3.7-0.1 5.1 0 1.4-0.1 2.8-0.1 4.4 0 3.2 0 5.9 0.1 8C97.6 67.3 97.6 68.4 97.6 68.6"/><path class="st3" d="M97.6 68.6h-7.3c0-0.2 0.1-1.5 0.1-4 0-2.4 0.1-4.7 0.1-6.9 0-0.8 0-2.2 0-4.2 0-1.9 0-3.4-0.1-4.4 -0.1-2.3-0.8-3.8-2.2-4.7 -1.4-0.9-3.5-1.3-6.4-1.3 -1.7 0-3.7 0.3-6 0.8 -2.3 0.5-5 1.3-7.9 2.4 0 0.1 0 0.3 0 0.6 0 0.3 0 0.7 0 1.1 0 1.5 0 3.1 0 4.7 0 1.6 0 3.1 0 4.5 0 3.1 0 5.8 0.1 7.9 0.1 2.1 0.1 3.3 0.1 3.5h-7.3c0-0.2 0-1.4 0.1-3.4 0.1-2.1 0.1-4.5 0.1-7.4 0-0.9 0-2.4 0-4.3 0-1.9 0-3.3-0.1-4.2 0-0.8-0.2-1.6-0.4-2.4 -0.2-0.8-0.6-1.4-1.2-1.9 -0.6-0.6-1.5-1-2.5-1.3 -1-0.3-2.5-0.4-4.4-0.4 -1.7 0-3.7 0.3-6.1 0.9 -2.3 0.6-5 1.5-8 2.7 0 0.3 0 1.5 0 3.6 0 2.1 0 3.8 0 5.1 0 2.2 0 4.9 0.1 8.1 0.1 3.1 0.1 4.8 0.1 5h-7.3c0-0.2 0-1.3 0.1-3.3 0.1-2.1 0.1-5.4 0.1-10.2 0-1.5 0-3.6 0-6.3 0-2.6-0.1-5.6-0.2-8.9h7.2l0 3.3 0 0c2.1-0.9 4.7-1.8 7.8-2.7 3.1-0.9 5.9-1.3 8.3-1.3 3 0 5.5 0.4 7.6 1.2 2 0.8 3.5 1.8 4.3 2.9h0.1c3.5-1.3 6.8-2.4 9.8-3.1 3-0.7 5.5-1 7.6-1 4.3 0 7.6 0.8 10 2.3 2.4 1.5 3.6 3.6 3.6 6.2 0 2 0 3.7-0.1 5.1 0 1.4-0.1 2.8-0.1 4.4 0 3.2 0 5.9 0.1 8C97.6 67.3 97.6 68.4 97.6 68.6z"/><path class="st2" d="M145.3 53.6c0-1.9-0.7-3.5-2.1-4.9 -1.4-1.4-3.2-2.5-5.5-3.3 -2.1-0.7-4.4-1.2-7-1.6 -2.6-0.3-5.5-0.5-8.5-0.5h-1 -1.1c0 0.3 0 1.5-0.1 3.4 0 1.9-0.1 5.3-0.1 10 0 1 0 2.4 0 4.2 0 1.8 0 3.2 0 4.3 2.9 0 5.8-0.2 8.6-0.5 2.9-0.3 5.3-0.8 7.1-1.4 3.1-1 5.5-2.2 7.1-3.8C144.5 57.9 145.3 55.9 145.3 53.6M152.7 53.5c0 2.9-1.1 5.5-3.2 7.5 -2.1 2.1-5 3.7-8.5 4.9 -3.1 1-6.6 1.8-10.3 2.2 -3.7 0.4-7.3 0.6-10.7 0.6l0.2 13.1h-7.3c0-0.3 0.1-3 0.1-7.9 0-4.9 0.1-9.9 0.1-14.9 0-2.5 0-5.4 0-8.7 0-3.3-0.1-6.9-0.1-10.7 1 0 2 0 2.9 0h2.2c6.4 0 11.4 0.2 15 0.6 3.6 0.4 6.8 1.2 9.7 2.2 3.1 1.1 5.5 2.6 7.3 4.5C151.8 48.9 152.7 51 152.7 53.5"/><path class="st3" d="M145.3 53.6c0-1.9-0.7-3.5-2.1-4.9 -1.4-1.4-3.2-2.5-5.5-3.3 -2.1-0.7-4.4-1.2-7-1.6 -2.6-0.3-5.5-0.5-8.5-0.5h-1 -1.1c0 0.3 0 1.5-0.1 3.4 0 1.9-0.1 5.3-0.1 10 0 1 0 2.4 0 4.2 0 1.8 0 3.2 0 4.3 2.9 0 5.8-0.2 8.6-0.5 2.9-0.3 5.3-0.8 7.1-1.4 3.1-1 5.5-2.2 7.1-3.8C144.5 57.9 145.3 55.9 145.3 53.6zM152.7 53.5c0 2.9-1.1 5.5-3.2 7.5 -2.1 2.1-5 3.7-8.5 4.9 -3.1 1-6.6 1.8-10.3 2.2 -3.7 0.4-7.3 0.6-10.7 0.6l0.2 13.1h-7.3c0-0.3 0.1-3 0.1-7.9 0-4.9 0.1-9.9 0.1-14.9 0-2.5 0-5.4 0-8.7 0-3.3-0.1-6.9-0.1-10.7 1 0 2 0 2.9 0h2.2c6.4 0 11.4 0.2 15 0.6 3.6 0.4 6.8 1.2 9.7 2.2 3.1 1.1 5.5 2.6 7.3 4.5C151.8 48.9 152.7 51 152.7 53.5z"/><path class="st2" d="M192.1 59.3v-2.4c0-1 0-2.1 0-3.4 -1.3 0-3.7 0.2-7.1 0.5 -3.4 0.3-6.2 0.7-8.5 1.3 -1.7 0.4-3.2 1-4.6 1.8 -1.3 0.8-2 1.8-2 2.9 0 1.3 0.6 2.3 1.7 3.1 1.1 0.8 2.7 1.4 4.6 1.8 1.5 0.3 3.2 0.6 5 0.7 1.8 0.1 3.7 0.2 5.8 0.2 0.6 0 1.4 0 2.2 0 0.9 0 1.8 0 2.8-0.1 0-0.1 0-0.8 0-1.9C192.1 62.6 192.1 61.1 192.1 59.3M199.1 52.4c0 4.7 0 8.5 0 11.4 0 2.9 0 4.5 0 4.8 -0.3 0-1.7 0.1-4.3 0.2 -2.5 0.1-5.8 0.2-9.8 0.2 -2.5 0-5-0.1-7.6-0.4 -2.5-0.3-4.7-0.7-6.6-1.2 -2.4-0.7-4.4-1.7-5.9-2.9 -1.5-1.2-2.3-2.7-2.3-4.4 0-1.8 0.9-3.3 2.7-4.7 1.8-1.3 4.3-2.4 7.5-3.2 2-0.5 4.6-1 8-1.4 3.3-0.4 7.1-0.7 11.4-0.9 -0.2-1.5-0.8-2.7-1.8-3.6 -1-0.9-2.5-1.7-4.5-2.2 -1.3-0.3-2.8-0.6-4.5-0.7 -1.7-0.1-3.6-0.2-5.8-0.2 -1.4 0-2.5 0-3.5 0.1 -1 0-2.3 0.1-3.9 0.1l0.7-3.8c0.5 0 1.4 0 2.7-0.1 1.4 0 3.2-0.1 5.6-0.1 3.6 0 6.8 0.2 9.7 0.7 2.8 0.5 5.2 1.2 7 2.3 1.7 1 3.1 2.2 3.9 3.6C198.7 47.6 199.1 49.7 199.1 52.4"/><path class="st3" d="M192.1 59.3v-2.4c0-1 0-2.1 0-3.4 -1.3 0-3.7 0.2-7.1 0.5 -3.4 0.3-6.2 0.7-8.5 1.3 -1.7 0.4-3.2 1-4.6 1.8 -1.3 0.8-2 1.8-2 2.9 0 1.3 0.6 2.3 1.7 3.1 1.1 0.8 2.7 1.4 4.6 1.8 1.5 0.3 3.2 0.6 5 0.7 1.8 0.1 3.7 0.2 5.8 0.2 0.6 0 1.4 0 2.2 0 0.9 0 1.8 0 2.8-0.1 0-0.1 0-0.8 0-1.9C192.1 62.6 192.1 61.1 192.1 59.3zM199.1 52.4c0 4.7 0 8.5 0 11.4 0 2.9 0 4.5 0 4.8 -0.3 0-1.7 0.1-4.3 0.2 -2.5 0.1-5.8 0.2-9.8 0.2 -2.5 0-5-0.1-7.6-0.4 -2.5-0.3-4.7-0.7-6.6-1.2 -2.4-0.7-4.4-1.7-5.9-2.9 -1.5-1.2-2.3-2.7-2.3-4.4 0-1.8 0.9-3.3 2.7-4.7 1.8-1.3 4.3-2.4 7.5-3.2 2-0.5 4.6-1 8-1.4 3.3-0.4 7.1-0.7 11.4-0.9 -0.2-1.5-0.8-2.7-1.8-3.6 -1-0.9-2.5-1.7-4.5-2.2 -1.3-0.3-2.8-0.6-4.5-0.7 -1.7-0.1-3.6-0.2-5.8-0.2 -1.4 0-2.5 0-3.5 0.1 -1 0-2.3 0.1-3.9 0.1l0.7-3.8c0.5 0 1.4 0 2.7-0.1 1.4 0 3.2-0.1 5.6-0.1 3.6 0 6.8 0.2 9.7 0.7 2.8 0.5 5.2 1.2 7 2.3 1.7 1 3.1 2.2 3.9 3.6C198.7 47.6 199.1 49.7 199.1 52.4z"/><path class="st2" d="M246.5 64.9l-0.5 3.8h-1.2 -1.4c-3.9 0-7.6-0.2-11-0.7 -3.4-0.5-6.5-1.1-9.2-2.1 -3.7-1.2-6.6-2.9-8.7-5 -2.1-2.1-3.1-4.4-3.1-6.9 0-2.3 0.9-4.3 2.8-6.2s4.4-3.5 7.4-4.7c2.7-1.1 6-1.9 9.9-2.5 3.8-0.6 7.8-0.9 11.9-0.9h1 0.8l0.4 3.8h-0.7 -0.7c-3.4 0-6.3 0.1-8.7 0.4 -2.4 0.3-4.7 0.7-7 1.3 -3 0.8-5.4 1.9-7.2 3.6 -1.8 1.6-2.7 3.4-2.7 5.2 0 2.2 0.8 4.1 2.5 5.6 1.7 1.5 3.9 2.7 6.6 3.5 2.1 0.6 4.5 1.1 7.2 1.4 2.7 0.3 5.5 0.4 8.5 0.4h1.6H246.5z"/><path class="st3" d="M246.5 64.9l-0.5 3.8h-1.2 -1.4c-3.9 0-7.6-0.2-11-0.7 -3.4-0.5-6.5-1.1-9.2-2.1 -3.7-1.2-6.6-2.9-8.7-5 -2.1-2.1-3.1-4.4-3.1-6.9 0-2.3 0.9-4.3 2.8-6.2s4.4-3.5 7.4-4.7c2.7-1.1 6-1.9 9.9-2.5 3.8-0.6 7.8-0.9 11.9-0.9h1 0.8l0.4 3.8h-0.7 -0.7c-3.4 0-6.3 0.1-8.7 0.4 -2.4 0.3-4.7 0.7-7 1.3 -3 0.8-5.4 1.9-7.2 3.6 -1.8 1.6-2.7 3.4-2.7 5.2 0 2.2 0.8 4.1 2.5 5.6 1.7 1.5 3.9 2.7 6.6 3.5 2.1 0.6 4.5 1.1 7.2 1.4 2.7 0.3 5.5 0.4 8.5 0.4h1.6H246.5z"/><path class="st2" d="M286 65l-0.8 3.6c-0.2 0-0.7 0-1.6 0.1 -0.8 0-1.6 0-2.2 0 -6.2 0-11-0.8-14.2-2.4 -3.2-1.6-4.8-4.1-4.8-7.5 0-2.1 0-4.4 0.1-6.8 0-2.4 0.1-5.4 0.1-9H255v-3.3h8.1V33h6.6v6.7H286v3.3h-16.3c0 0.4 0 1.6-0.1 3.6 0 2-0.1 3.4-0.1 4.4V54v4.1c0 2.5 1.1 4.2 3.2 5.3 2.1 1.1 5.4 1.6 9.9 1.6 0.5 0 1.2 0 2 0C285.3 65.1 285.8 65 286 65"/><path class="st3" d="M286 65l-0.8 3.6c-0.2 0-0.7 0-1.6 0.1 -0.8 0-1.6 0-2.2 0 -6.2 0-11-0.8-14.2-2.4 -3.2-1.6-4.8-4.1-4.8-7.5 0-2.1 0-4.4 0.1-6.8 0-2.4 0.1-5.4 0.1-9H255v-3.3h8.1V33h6.6v6.7H286v3.3h-16.3c0 0.4 0 1.6-0.1 3.6 0 2-0.1 3.4-0.1 4.4V54v4.1c0 2.5 1.1 4.2 3.2 5.3 2.1 1.1 5.4 1.6 9.9 1.6 0.5 0 1.2 0 2 0C285.3 65.1 285.8 65 286 65z"/></svg>