<?xml version="1.0" encoding="UTF-8" standalone="no"?>
<svg width="62px" height="64px" viewBox="0 0 62 64" version="1.1" xmlns="http://www.w3.org/2000/svg" xmlns:xlink="http://www.w3.org/1999/xlink" xmlns:sketch="http://www.bohemiancoding.com/sketch/ns">
    <!-- Generator: Sketch 3.1.1 (8761) - http://www.bohemiancoding.com/sketch -->
    <title>Logo DHS 3</title>
    <desc>Created with Sketch.</desc>
    <defs/>
    <g id="Woonscan" stroke="none" stroke-width="1" fill="none" fill-rule="evenodd" sketch:type="MSPage">
        <g id="Woonscan---Wat-kan-ik-lenen" sketch:type="MSArtboardGroup" transform="translate(-16.000000, -13.000000)">
            <g id="Logo-DHS-3" sketch:type="MSLayerGroup" transform="translate(16.000000, 13.000000)">
                <path d="M18.6501333,32.3855789 C19.1224,32.3855789 19.5050667,31.9971579 19.5050667,31.5158947 C19.5050667,31.0365263 19.1224,30.6485789 18.6501333,30.6485789 C18.1774,30.6485789 17.7947333,31.0365263 17.7947333,31.5158947 C17.7947333,31.9971579 18.1774,32.3855789 18.6501333,32.3855789" id="Fill-3" fill="#D64F2A" sketch:type="MSShapeGroup"/>
                <path d="M24.6687333,32.3855789 C25.1414667,32.3855789 25.5255333,31.9971579 25.5255333,31.5158947 C25.5255333,31.0365263 25.1414667,30.6485789 24.6687333,30.6485789 C24.196,30.6485789 23.8133333,31.0365263 23.8133333,31.5158947 C23.8133333,31.9971579 24.196,32.3855789 24.6687333,32.3855789" id="Fill-4" fill="#D64F2A" sketch:type="MSShapeGroup"/>
                <path d="M30.6864,32.3855789 C31.1582,32.3855789 31.5418,31.9971579 31.5418,31.5158947 C31.5418,31.0365263 31.1582,30.6485789 30.6864,30.6485789 C30.2141333,30.6485789 29.8314667,31.0365263 29.8314667,31.5158947 C29.8314667,31.9971579 30.2141333,32.3855789 30.6864,32.3855789" id="Fill-5" fill="#D64F2A" sketch:type="MSShapeGroup"/>
                <path d="M36.7040667,32.3855789 C37.1768,32.3855789 37.5608667,31.9971579 37.5608667,31.5158947 C37.5608667,31.0365263 37.1768,30.6485789 36.7040667,30.6485789 C36.2322667,30.6485789 35.8491333,31.0365263 35.8491333,31.5158947 C35.8491333,31.9971579 36.2322667,32.3855789 36.7040667,32.3855789" id="Fill-6" fill="#D64F2A" sketch:type="MSShapeGroup"/>
                <path d="M42.7222,32.3855789 C43.1958667,32.3855789 43.5794667,31.9971579 43.5794667,31.5158947 C43.5794667,31.0365263 43.1958667,30.6485789 42.7222,30.6485789 C42.2499333,30.6485789 41.8672667,31.0365263 41.8672667,31.5158947 C41.8672667,31.9971579 42.2499333,32.3855789 42.7222,32.3855789" id="Fill-7" fill="#D64F2A" sketch:type="MSShapeGroup"/>
                <path d="M48.7426667,32.3855789 C49.2144667,32.3855789 49.5980667,31.9971579 49.5980667,31.5158947 C49.5980667,31.0365263 49.2144667,30.6485789 48.7426667,30.6485789 C48.2699333,30.6485789 47.8868,31.0365263 47.8868,31.5158947 C47.8868,31.9971579 48.2699333,32.3855789 48.7426667,32.3855789" id="Fill-8" fill="#D64F2A" sketch:type="MSShapeGroup"/>
                <path d="M54.7598667,32.3855789 C55.2330667,32.3855789 55.6152667,31.9971579 55.6152667,31.5158947 C55.6152667,31.0365263 55.2330667,30.6485789 54.7598667,30.6485789 C54.2885333,30.6485789 53.9049333,31.0365263 53.9049333,31.5158947 C53.9049333,31.9971579 54.2885333,32.3855789 54.7598667,32.3855789" id="Fill-9" fill="#D64F2A" sketch:type="MSShapeGroup"/>
                <path d="M60.7803333,32.3855789 C61.2521333,32.3855789 61.6352667,31.9971579 61.6352667,31.5158947 C61.6352667,31.0365263 61.2521333,30.6485789 60.7803333,30.6485789 C60.3076,30.6485789 59.9230667,31.0365263 59.9230667,31.5158947 C59.9230667,31.9971579 60.3076,32.3855789 60.7803333,32.3855789" id="Fill-10" fill="#D64F2A" sketch:type="MSShapeGroup"/>
                <path d="M18.6501333,26.285 C19.1224,26.285 19.5050667,25.8961053 19.5050667,25.4157895 C19.5050667,24.9359474 19.1224,24.5475263 18.6501333,24.5475263 C18.1774,24.5475263 17.7947333,24.9359474 17.7947333,25.4157895 C17.7947333,25.8961053 18.1774,26.285 18.6501333,26.285" id="Fill-11" fill="#D64F2A" sketch:type="MSShapeGroup"/>
                <path d="M24.6687333,26.285 C25.1414667,26.285 25.5255333,25.8961053 25.5255333,25.4157895 C25.5255333,24.9359474 25.1414667,24.5475263 24.6687333,24.5475263 C24.196,24.5475263 23.8133333,24.9359474 23.8133333,25.4157895 C23.8133333,25.8961053 24.196,26.285 24.6687333,26.285" id="Fill-12" fill="#D64F2A" sketch:type="MSShapeGroup"/>
                <path d="M30.6864,26.285 C31.1582,26.285 31.5418,25.8961053 31.5418,25.4157895 C31.5418,24.9359474 31.1582,24.5475263 30.6864,24.5475263 C30.2141333,24.5475263 29.8314667,24.9359474 29.8314667,25.4157895 C29.8314667,25.8961053 30.2141333,26.285 30.6864,26.285" id="Fill-13" fill="#D64F2A" sketch:type="MSShapeGroup"/>
                <path d="M36.7040667,26.285 C37.1768,26.285 37.5608667,25.8961053 37.5608667,25.4157895 C37.5608667,24.9359474 37.1768,24.5475263 36.7040667,24.5475263 C36.2322667,24.5475263 35.8491333,24.9359474 35.8491333,25.4157895 C35.8491333,25.8961053 36.2322667,26.285 36.7040667,26.285" id="Fill-14" fill="#D64F2A" sketch:type="MSShapeGroup"/>
                <path d="M42.7222,26.285 C43.1958667,26.285 43.5794667,25.8961053 43.5794667,25.4157895 C43.5794667,24.9359474 43.1958667,24.5475263 42.7222,24.5475263 C42.2499333,24.5475263 41.8672667,24.9359474 41.8672667,25.4157895 C41.8672667,25.8961053 42.2499333,26.285 42.7222,26.285" id="Fill-15" fill="#D64F2A" sketch:type="MSShapeGroup"/>
                <path d="M48.7426667,26.285 C49.2144667,26.285 49.5980667,25.8961053 49.5980667,25.4157895 C49.5980667,24.9359474 49.2144667,24.5475263 48.7426667,24.5475263 C48.2699333,24.5475263 47.8868,24.9359474 47.8868,25.4157895 C47.8868,25.8961053 48.2699333,26.285 48.7426667,26.285" id="Fill-16" fill="#D64F2A" sketch:type="MSShapeGroup"/>
                <path d="M54.7598667,26.285 C55.2330667,26.285 55.6152667,25.8961053 55.6152667,25.4157895 C55.6152667,24.9359474 55.2330667,24.5475263 54.7598667,24.5475263 C54.2885333,24.5475263 53.9049333,24.9359474 53.9049333,25.4157895 C53.9049333,25.8961053 54.2885333,26.285 54.7598667,26.285" id="Fill-17" fill="#E05329" sketch:type="MSShapeGroup"/>
                <path d="M60.7803333,26.285 C61.2521333,26.285 61.6352667,25.8961053 61.6352667,25.4157895 C61.6352667,24.9359474 61.2521333,24.5475263 60.7803333,24.5475263 C60.3076,24.5475263 59.9230667,24.9359474 59.9230667,25.4157895 C59.9230667,25.8961053 60.3076,26.285 60.7803333,26.285" id="Fill-18" fill="#D64F2A" sketch:type="MSShapeGroup"/>
                <path d="M18.6501333,20.1848947 C19.1224,20.1848947 19.5050667,19.7955263 19.5050667,19.3147368 C19.5050667,18.8363158 19.1224,18.4469474 18.6501333,18.4469474 C18.1774,18.4469474 17.7947333,18.8363158 17.7947333,19.3147368 C17.7947333,19.7955263 18.1774,20.1848947 18.6501333,20.1848947" id="Fill-19" fill="#D64F2A" sketch:type="MSShapeGroup"/>
                <path d="M24.6687333,20.1848947 C25.1414667,20.1848947 25.5255333,19.7955263 25.5255333,19.3147368 C25.5255333,18.8363158 25.1414667,18.4469474 24.6687333,18.4469474 C24.196,18.4469474 23.8133333,18.8363158 23.8133333,19.3147368 C23.8133333,19.7955263 24.196,20.1848947 24.6687333,20.1848947" id="Fill-20" fill="#E05329" sketch:type="MSShapeGroup"/>
                <path d="M30.6864,20.1848947 C31.1582,20.1848947 31.5418,19.7955263 31.5418,19.3147368 C31.5418,18.8363158 31.1582,18.4469474 30.6864,18.4469474 C30.2141333,18.4469474 29.8314667,18.8363158 29.8314667,19.3147368 C29.8314667,19.7955263 30.2141333,20.1848947 30.6864,20.1848947" id="Fill-21" fill="#D64F2A" sketch:type="MSShapeGroup"/>
                <path d="M36.7040667,20.1848947 C37.1768,20.1848947 37.5608667,19.7955263 37.5608667,19.3147368 C37.5608667,18.8363158 37.1768,18.4469474 36.7040667,18.4469474 C36.2322667,18.4469474 35.8491333,18.8363158 35.8491333,19.3147368 C35.8491333,19.7955263 36.2322667,20.1848947 36.7040667,20.1848947" id="Fill-22" fill="#D64F2A" sketch:type="MSShapeGroup"/>
                <path d="M42.7222,20.1848947 C43.1958667,20.1848947 43.5794667,19.7955263 43.5794667,19.3147368 C43.5794667,18.8363158 43.1958667,18.4469474 42.7222,18.4469474 C42.2499333,18.4469474 41.8672667,18.8363158 41.8672667,19.3147368 C41.8672667,19.7955263 42.2499333,20.1848947 42.7222,20.1848947" id="Fill-23" fill="#D64F2A" sketch:type="MSShapeGroup"/>
                <path d="M48.7426667,20.1848947 C49.2144667,20.1848947 49.5980667,19.7955263 49.5980667,19.3147368 C49.5980667,18.8363158 49.2144667,18.4469474 48.7426667,18.4469474 C48.2699333,18.4469474 47.8868,18.8363158 47.8868,19.3147368 C47.8868,19.7955263 48.2699333,20.1848947 48.7426667,20.1848947" id="Fill-24" fill="#D64F2A" sketch:type="MSShapeGroup"/>
                <path d="M54.7598667,20.1848947 C55.2330667,20.1848947 55.6152667,19.7955263 55.6152667,19.3147368 C55.6152667,18.8363158 55.2330667,18.4469474 54.7598667,18.4469474 C54.2885333,18.4469474 53.9049333,18.8363158 53.9049333,19.3147368 C53.9049333,19.7955263 54.2885333,20.1848947 54.7598667,20.1848947" id="Fill-25" fill="#E05329" sketch:type="MSShapeGroup"/>
                <path d="M60.7803333,20.1848947 C61.2521333,20.1848947 61.6352667,19.7955263 61.6352667,19.3147368 C61.6352667,18.8363158 61.2521333,18.4469474 60.7803333,18.4469474 C60.3076,18.4469474 59.9230667,18.8363158 59.9230667,19.3147368 C59.9230667,19.7955263 60.3076,20.1848947 60.7803333,20.1848947" id="Fill-26" fill="#D64F2A" sketch:type="MSShapeGroup"/>
                <path d="M18.6501333,14.0838421 C19.1224,14.0838421 19.5050667,13.6944737 19.5050667,13.2146316 C19.5050667,12.7352632 19.1224,12.3454211 18.6501333,12.3454211 C18.1774,12.3454211 17.7947333,12.7352632 17.7947333,13.2146316 C17.7947333,13.6944737 18.1774,14.0838421 18.6501333,14.0838421" id="Fill-27" fill="#D64F2A" sketch:type="MSShapeGroup"/>
                <path d="M24.6687333,14.0838421 C25.1414667,14.0838421 25.5255333,13.6944737 25.5255333,13.2146316 C25.5255333,12.7352632 25.1414667,12.3454211 24.6687333,12.3454211 C24.196,12.3454211 23.8133333,12.7352632 23.8133333,13.2146316 C23.8133333,13.6944737 24.196,14.0838421 24.6687333,14.0838421" id="Fill-28" fill="#D64F2A" sketch:type="MSShapeGroup"/>
                <path d="M30.6864,14.0838421 C31.1582,14.0838421 31.5418,13.6944737 31.5418,13.2146316 C31.5418,12.7352632 31.1582,12.3454211 30.6864,12.3454211 C30.2141333,12.3454211 29.8314667,12.7352632 29.8314667,13.2146316 C29.8314667,13.6944737 30.2141333,14.0838421 30.6864,14.0838421" id="Fill-29" fill="#E05329" sketch:type="MSShapeGroup"/>
                <path d="M36.7040667,14.0838421 C37.1768,14.0838421 37.5608667,13.6944737 37.5608667,13.2146316 C37.5608667,12.7352632 37.1768,12.3454211 36.7040667,12.3454211 C36.2322667,12.3454211 35.8491333,12.7352632 35.8491333,13.2146316 C35.8491333,13.6944737 36.2322667,14.0838421 36.7040667,14.0838421" id="Fill-30" fill="#D64F2A" sketch:type="MSShapeGroup"/>
                <path d="M42.7222,14.0838421 C43.1958667,14.0838421 43.5794667,13.6944737 43.5794667,13.2146316 C43.5794667,12.7352632 43.1958667,12.3454211 42.7222,12.3454211 C42.2499333,12.3454211 41.8672667,12.7352632 41.8672667,13.2146316 C41.8672667,13.6944737 42.2499333,14.0838421 42.7222,14.0838421" id="Fill-31" fill="#D64F2A" sketch:type="MSShapeGroup"/>
                <path d="M48.7426667,14.0838421 C49.2144667,14.0838421 49.5980667,13.6944737 49.5980667,13.2146316 C49.5980667,12.7352632 49.2144667,12.3454211 48.7426667,12.3454211 C48.2699333,12.3454211 47.8868,12.7352632 47.8868,13.2146316 C47.8868,13.6944737 48.2699333,14.0838421 48.7426667,14.0838421" id="Fill-32" fill="#E05329" sketch:type="MSShapeGroup"/>
                <path d="M54.7598667,14.0838421 C55.2330667,14.0838421 55.6152667,13.6944737 55.6152667,13.2146316 C55.6152667,12.7352632 55.2330667,12.3454211 54.7598667,12.3454211 C54.2885333,12.3454211 53.9049333,12.7352632 53.9049333,13.2146316 C53.9049333,13.6944737 54.2885333,14.0838421 54.7598667,14.0838421" id="Fill-33" fill="#D64F2A" sketch:type="MSShapeGroup"/>
                <path d="M60.7803333,14.0838421 C61.2521333,14.0838421 61.6352667,13.6944737 61.6352667,13.2146316 C61.6352667,12.7352632 61.2521333,12.3454211 60.7803333,12.3454211 C60.3076,12.3454211 59.9230667,12.7352632 59.9230667,13.2146316 C59.9230667,13.6944737 60.3076,14.0838421 60.7803333,14.0838421" id="Fill-34" fill="#D64F2A" sketch:type="MSShapeGroup"/>
                <path d="M18.6501333,7.98278947 C19.1224,7.98278947 19.5050667,7.59389474 19.5050667,7.11405263 C19.5050667,6.63421053 19.1224,6.24578947 18.6501333,6.24578947 C18.1774,6.24578947 17.7947333,6.63421053 17.7947333,7.11405263 C17.7947333,7.59389474 18.1774,7.98278947 18.6501333,7.98278947" id="Fill-35" fill="#D64F2A" sketch:type="MSShapeGroup"/>
                <path d="M24.6687333,7.98278947 C25.1414667,7.98278947 25.5255333,7.59389474 25.5255333,7.11405263 C25.5255333,6.63421053 25.1414667,6.24578947 24.6687333,6.24578947 C24.196,6.24578947 23.8133333,6.63421053 23.8133333,7.11405263 C23.8133333,7.59389474 24.196,7.98278947 24.6687333,7.98278947" id="Fill-36" fill="#D64F2A" sketch:type="MSShapeGroup"/>
                <path d="M30.6864,7.98278947 C31.1582,7.98278947 31.5418,7.59389474 31.5418,7.11405263 C31.5418,6.63421053 31.1582,6.24578947 30.6864,6.24578947 C30.2141333,6.24578947 29.8314667,6.63421053 29.8314667,7.11405263 C29.8314667,7.59389474 30.2141333,7.98278947 30.6864,7.98278947" id="Fill-37" fill="#D64F2A" sketch:type="MSShapeGroup"/>
                <path d="M36.7040667,7.98278947 C37.1768,7.98278947 37.5608667,7.59389474 37.5608667,7.11405263 C37.5608667,6.63421053 37.1768,6.24578947 36.7040667,6.24578947 C36.2322667,6.24578947 35.8491333,6.63421053 35.8491333,7.11405263 C35.8491333,7.59389474 36.2322667,7.98278947 36.7040667,7.98278947" id="Fill-38" fill="#E05329" sketch:type="MSShapeGroup"/>
                <path d="M42.7222,7.98278947 C43.1958667,7.98278947 43.5794667,7.59389474 43.5794667,7.11405263 C43.5794667,6.63421053 43.1958667,6.24578947 42.7222,6.24578947 C42.2499333,6.24578947 41.8672667,6.63421053 41.8672667,7.11405263 C41.8672667,7.59389474 42.2499333,7.98278947 42.7222,7.98278947" id="Fill-39" fill="#E05329" sketch:type="MSShapeGroup"/>
                <path d="M48.7426667,7.98278947 C49.2144667,7.98278947 49.5980667,7.59389474 49.5980667,7.11405263 C49.5980667,6.63421053 49.2144667,6.24578947 48.7426667,6.24578947 C48.2699333,6.24578947 47.8868,6.63421053 47.8868,7.11405263 C47.8868,7.59389474 48.2699333,7.98278947 48.7426667,7.98278947" id="Fill-40" fill="#D64F2A" sketch:type="MSShapeGroup"/>
                <path d="M54.7598667,7.98278947 C55.2330667,7.98278947 55.6152667,7.59389474 55.6152667,7.11405263 C55.6152667,6.63421053 55.2330667,6.24578947 54.7598667,6.24578947 C54.2885333,6.24578947 53.9049333,6.63421053 53.9049333,7.11405263 C53.9049333,7.59389474 54.2885333,7.98278947 54.7598667,7.98278947" id="Fill-41" fill="#D64F2A" sketch:type="MSShapeGroup"/>
                <path d="M60.7803333,7.98278947 C61.2521333,7.98278947 61.6352667,7.59389474 61.6352667,7.11405263 C61.6352667,6.63421053 61.2521333,6.24578947 60.7803333,6.24578947 C60.3076,6.24578947 59.9230667,6.63421053 59.9230667,7.11405263 C59.9230667,7.59389474 60.3076,7.98278947 60.7803333,7.98278947" id="Fill-42" fill="#D64F2A" sketch:type="MSShapeGroup"/>
                <path d="M18.6501333,1.88221053 C19.1224,1.88221053 19.5050667,1.49284211 19.5050667,1.013 C19.5050667,0.533157895 19.1224,0.144736842 18.6501333,0.144736842 C18.1774,0.144736842 17.7947333,0.533157895 17.7947333,1.013 C17.7947333,1.49284211 18.1774,1.88221053 18.6501333,1.88221053" id="Fill-43" fill="#D64F2A" sketch:type="MSShapeGroup"/>
                <path d="M24.6687333,1.88221053 C25.1414667,1.88221053 25.5255333,1.49284211 25.5255333,1.013 C25.5255333,0.533157895 25.1414667,0.144736842 24.6687333,0.144736842 C24.196,0.144736842 23.8133333,0.533157895 23.8133333,1.013 C23.8133333,1.49284211 24.196,1.88221053 24.6687333,1.88221053" id="Fill-44" fill="#D64F2A" sketch:type="MSShapeGroup"/>
                <path d="M30.6864,1.88221053 C31.1582,1.88221053 31.5418,1.49284211 31.5418,1.013 C31.5418,0.533157895 31.1582,0.144736842 30.6864,0.144736842 C30.2141333,0.144736842 29.8314667,0.533157895 29.8314667,1.013 C29.8314667,1.49284211 30.2141333,1.88221053 30.6864,1.88221053" id="Fill-45" fill="#D64F2A" sketch:type="MSShapeGroup"/>
                <path d="M36.7040667,1.88221053 C37.1768,1.88221053 37.5608667,1.49284211 37.5608667,1.013 C37.5608667,0.533157895 37.1768,0.144736842 36.7040667,0.144736842 C36.2322667,0.144736842 35.8491333,0.533157895 35.8491333,1.013 C35.8491333,1.49284211 36.2322667,1.88221053 36.7040667,1.88221053" id="Fill-46" fill="#D64F2A" sketch:type="MSShapeGroup"/>
                <path d="M42.7222,1.88221053 C43.1958667,1.88221053 43.5794667,1.49284211 43.5794667,1.013 C43.5794667,0.533157895 43.1958667,0.144736842 42.7222,0.144736842 C42.2499333,0.144736842 41.8672667,0.533157895 41.8672667,1.013 C41.8672667,1.49284211 42.2499333,1.88221053 42.7222,1.88221053" id="Fill-47" fill="#D64F2A" sketch:type="MSShapeGroup"/>
                <path d="M48.7426667,1.88221053 C49.2144667,1.88221053 49.5980667,1.49284211 49.5980667,1.013 C49.5980667,0.533157895 49.2144667,0.144736842 48.7426667,0.144736842 C48.2699333,0.144736842 47.8868,0.533157895 47.8868,1.013 C47.8868,1.49284211 48.2699333,1.88221053 48.7426667,1.88221053" id="Fill-48" fill="#D64F2A" sketch:type="MSShapeGroup"/>
                <path d="M54.7598667,1.88221053 C55.2330667,1.88221053 55.6152667,1.49284211 55.6152667,1.013 C55.6152667,0.533157895 55.2330667,0.144736842 54.7598667,0.144736842 C54.2885333,0.144736842 53.9049333,0.533157895 53.9049333,1.013 C53.9049333,1.49284211 54.2885333,1.88221053 54.7598667,1.88221053" id="Fill-49" fill="#D64F2A" sketch:type="MSShapeGroup"/>
                <path d="M60.7803333,1.88221053 C61.2521333,1.88221053 61.6352667,1.49284211 61.6352667,1.013 C61.6352667,0.533157895 61.2521333,0.144736842 60.7803333,0.144736842 C60.3076,0.144736842 59.9230667,0.533157895 59.9230667,1.013 C59.9230667,1.49284211 60.3076,1.88221053 60.7803333,1.88221053" id="Fill-50" fill="#D64F2A" sketch:type="MSShapeGroup"/>
                <path d="M18.6501333,38.4866316 C19.1224,38.4866316 19.5050667,38.0982105 19.5050667,37.6174211 C19.5050667,37.1380526 19.1224,36.7491579 18.6501333,36.7491579 C18.1774,36.7491579 17.7947333,37.1380526 17.7947333,37.6174211 C17.7947333,38.0982105 18.1774,38.4866316 18.6501333,38.4866316" id="Fill-51" fill="#D64F2A" sketch:type="MSShapeGroup"/>
                <path d="M24.6687333,38.4866316 C25.1414667,38.4866316 25.5255333,38.0982105 25.5255333,37.6174211 C25.5255333,37.1380526 25.1414667,36.7491579 24.6687333,36.7491579 C24.196,36.7491579 23.8133333,37.1380526 23.8133333,37.6174211 C23.8133333,38.0982105 24.196,38.4866316 24.6687333,38.4866316" id="Fill-52" fill="#D64F2A" sketch:type="MSShapeGroup"/>
                <path d="M30.6864,38.4866316 C31.1582,38.4866316 31.5418,38.0982105 31.5418,37.6174211 C31.5418,37.1380526 31.1582,36.7491579 30.6864,36.7491579 C30.2141333,36.7491579 29.8314667,37.1380526 29.8314667,37.6174211 C29.8314667,38.0982105 30.2141333,38.4866316 30.6864,38.4866316" id="Fill-53" fill="#D64F2A" sketch:type="MSShapeGroup"/>
                <path d="M36.7040667,38.4866316 C37.1768,38.4866316 37.5608667,38.0982105 37.5608667,37.6174211 C37.5608667,37.1380526 37.1768,36.7491579 36.7040667,36.7491579 C36.2322667,36.7491579 35.8491333,37.1380526 35.8491333,37.6174211 C35.8491333,38.0982105 36.2322667,38.4866316 36.7040667,38.4866316" id="Fill-54" fill="#D64F2A" sketch:type="MSShapeGroup"/>
                <path d="M42.7222,38.4866316 C43.1958667,38.4866316 43.5794667,38.0982105 43.5794667,37.6174211 C43.5794667,37.1380526 43.1958667,36.7491579 42.7222,36.7491579 C42.2499333,36.7491579 41.8672667,37.1380526 41.8672667,37.6174211 C41.8672667,38.0982105 42.2499333,38.4866316 42.7222,38.4866316" id="Fill-55" fill="#D64F2A" sketch:type="MSShapeGroup"/>
                <path d="M48.7426667,38.4866316 C49.2144667,38.4866316 49.5980667,38.0982105 49.5980667,37.6174211 C49.5980667,37.1380526 49.2144667,36.7491579 48.7426667,36.7491579 C48.2699333,36.7491579 47.8868,37.1380526 47.8868,37.6174211 C47.8868,38.0982105 48.2699333,38.4866316 48.7426667,38.4866316" id="Fill-56" fill="#D64F2A" sketch:type="MSShapeGroup"/>
                <path d="M54.7598667,38.4866316 C55.2330667,38.4866316 55.6152667,38.0982105 55.6152667,37.6174211 C55.6152667,37.1380526 55.2330667,36.7491579 54.7598667,36.7491579 C54.2885333,36.7491579 53.9049333,37.1380526 53.9049333,37.6174211 C53.9049333,38.0982105 54.2885333,38.4866316 54.7598667,38.4866316" id="Fill-57" fill="#D64F2A" sketch:type="MSShapeGroup"/>
                <path d="M60.7803333,38.4866316 C61.2521333,38.4866316 61.6352667,38.0982105 61.6352667,37.6174211 C61.6352667,37.1380526 61.2521333,36.7491579 60.7803333,36.7491579 C60.3076,36.7491579 59.9230667,37.1380526 59.9230667,37.6174211 C59.9230667,38.0982105 60.3076,38.4866316 60.7803333,38.4866316" id="Fill-58" fill="#D64F2A" sketch:type="MSShapeGroup"/>
                <path d="M18.6501333,44.5872105 C19.1224,44.5872105 19.5050667,44.1978421 19.5050667,43.7184737 C19.5050667,43.2386316 19.1224,42.8506842 18.6501333,42.8506842 C18.1774,42.8506842 17.7947333,43.2386316 17.7947333,43.7184737 C17.7947333,44.1978421 18.1774,44.5872105 18.6501333,44.5872105" id="Fill-59" fill="#D64F2A" sketch:type="MSShapeGroup"/>
                <path d="M24.6687333,44.5872105 C25.1414667,44.5872105 25.5255333,44.1978421 25.5255333,43.7184737 C25.5255333,43.2386316 25.1414667,42.8506842 24.6687333,42.8506842 C24.196,42.8506842 23.8133333,43.2386316 23.8133333,43.7184737 C23.8133333,44.1978421 24.196,44.5872105 24.6687333,44.5872105" id="Fill-60" fill="#D64F2A" sketch:type="MSShapeGroup"/>
                <path d="M30.6864,44.5872105 C31.1582,44.5872105 31.5418,44.1978421 31.5418,43.7184737 C31.5418,43.2386316 31.1582,42.8506842 30.6864,42.8506842 C30.2141333,42.8506842 29.8314667,43.2386316 29.8314667,43.7184737 C29.8314667,44.1978421 30.2141333,44.5872105 30.6864,44.5872105" id="Fill-61" fill="#D64F2A" sketch:type="MSShapeGroup"/>
                <path d="M36.7040667,44.5872105 C37.1768,44.5872105 37.5608667,44.1978421 37.5608667,43.7184737 C37.5608667,43.2386316 37.1768,42.8506842 36.7040667,42.8506842 C36.2322667,42.8506842 35.8491333,43.2386316 35.8491333,43.7184737 C35.8491333,44.1978421 36.2322667,44.5872105 36.7040667,44.5872105" id="Fill-62" fill="#D64F2A" sketch:type="MSShapeGroup"/>
                <path d="M42.7222,44.5872105 C43.1958667,44.5872105 43.5794667,44.1978421 43.5794667,43.7184737 C43.5794667,43.2386316 43.1958667,42.8506842 42.7222,42.8506842 C42.2499333,42.8506842 41.8672667,43.2386316 41.8672667,43.7184737 C41.8672667,44.1978421 42.2499333,44.5872105 42.7222,44.5872105" id="Fill-63" fill="#D64F2A" sketch:type="MSShapeGroup"/>
                <path d="M48.7426667,44.5872105 C49.2144667,44.5872105 49.5980667,44.1978421 49.5980667,43.7184737 C49.5980667,43.2386316 49.2144667,42.8506842 48.7426667,42.8506842 C48.2699333,42.8506842 47.8868,43.2386316 47.8868,43.7184737 C47.8868,44.1978421 48.2699333,44.5872105 48.7426667,44.5872105" id="Fill-64" fill="#D64F2A" sketch:type="MSShapeGroup"/>
                <path d="M54.7598667,44.5872105 C55.2330667,44.5872105 55.6152667,44.1978421 55.6152667,43.7184737 C55.6152667,43.2386316 55.2330667,42.8506842 54.7598667,42.8506842 C54.2885333,42.8506842 53.9049333,43.2386316 53.9049333,43.7184737 C53.9049333,44.1978421 54.2885333,44.5872105 54.7598667,44.5872105" id="Fill-65" fill="#D64F2A" sketch:type="MSShapeGroup"/>
                <path d="M60.7803333,44.5872105 C61.2521333,44.5872105 61.6352667,44.1978421 61.6352667,43.7184737 C61.6352667,43.2386316 61.2521333,42.8506842 60.7803333,42.8506842 C60.3076,42.8506842 59.9230667,43.2386316 59.9230667,43.7184737 C59.9230667,44.1978421 60.3076,44.5872105 60.7803333,44.5872105" id="Fill-66" fill="#D64F2A" sketch:type="MSShapeGroup"/>
                <path d="M55.5602,63.4895789 L61.6044667,63.4895789 L61.6044667,57.3553684 L55.5602,57.3553684 L55.5602,63.4895789 Z" id="Fill-67" fill="#D64F2A" sketch:type="MSShapeGroup"/>
                <path d="M3.08913333,36.4990526 L0.490733333,36.4990526 L0.483266667,43.7052105 L1.95,43.7052105 L1.93833333,37.6448947 L3.13533333,37.6448947 C4.68513333,37.6448947 5.69966667,38.6860526 5.69966667,40.0502632 C5.69966667,41.6536842 4.54886667,42.5598421 2.83853333,42.5598421 L2.29533333,42.5598421 L2.29533333,43.7052105 L3.13533333,43.7052105 C5.23206667,43.7052105 7.22753333,42.2467368 7.22753333,40.0606842 C7.22753333,37.9148947 5.57413333,36.4990526 3.08913333,36.4990526" id="Fill-68" fill="#D64F2A" sketch:type="MSShapeGroup"/>
                <path d="M12.3174667,37.4573158 L9.6878,37.4573158 L9.6878,39.4197895 L12.261,39.4197895 L12.261,40.3808947 L9.6878,40.3808947 L9.6878,42.692 L12.7976667,42.692 L12.7976667,43.6526316 L8.11,43.6526316 L8.11,36.4966842 L12.3174667,36.4966842 L12.3174667,37.4573158" id="Fill-69" fill="#D64F2A" sketch:type="MSShapeGroup"/>
                <path d="M1.00546667,7.98278947 C1.47773333,7.98278947 1.86133333,7.59389474 1.86133333,7.11405263 C1.86133333,6.63421053 1.47773333,6.24578947 1.00546667,6.24578947 C0.532733333,6.24578947 0.150066667,6.63421053 0.150066667,7.11405263 C0.150066667,7.59389474 0.532733333,7.98278947 1.00546667,7.98278947" id="Fill-70" fill="#0E182B" sketch:type="MSShapeGroup"/>
                <path d="M7.0236,7.98278947 C7.4968,7.98278947 7.8804,7.59389474 7.8804,7.11405263 C7.8804,6.63421053 7.4968,6.24578947 7.0236,6.24578947 C6.55226667,6.24578947 6.16866667,6.63421053 6.16866667,7.11405263 C6.16866667,7.59389474 6.55226667,7.98278947 7.0236,7.98278947" id="Fill-71" fill="#0E182B" sketch:type="MSShapeGroup"/>
                <path d="M1.00546667,1.88221053 C1.47773333,1.88221053 1.86133333,1.49284211 1.86133333,1.013 C1.86133333,0.533157895 1.47773333,0.144736842 1.00546667,0.144736842 C0.532733333,0.144736842 0.150066667,0.533157895 0.150066667,1.013 C0.150066667,1.49284211 0.532733333,1.88221053 1.00546667,1.88221053" id="Fill-72" fill="#0E182B" sketch:type="MSShapeGroup"/>
                <path d="M7.0236,1.88221053 C7.4968,1.88221053 7.8804,1.49284211 7.8804,1.013 C7.8804,0.533157895 7.4968,0.144736842 7.0236,0.144736842 C6.55226667,0.144736842 6.16866667,0.533157895 6.16866667,1.013 C6.16866667,1.49284211 6.55226667,1.88221053 7.0236,1.88221053" id="Fill-73" fill="#0E182B" sketch:type="MSShapeGroup"/>
                <path d="M6.96853333,53.6071053 L5.3912,53.6071053 L5.3912,50.162 L2.11333333,50.162 L2.11333333,53.6071053 L0.535533333,53.6071053 L0.535533333,46.4516316 L2.11333333,46.4516316 L2.11333333,49.2008947 L5.3912,49.2008947 L5.3912,46.4715263 L6.96853333,46.4715263 L6.96853333,53.6071053" id="Fill-74" fill="#0E182B" sketch:type="MSShapeGroup"/>
                <path d="M10.2739333,53.6071053 L10.2739333,50.612 L7.8678,46.553 L9.636,46.3478947 C10.1838667,47.3814737 10.721,48.4136316 11.2698,49.6508947 C11.8741333,48.4136316 12.4892,47.3814737 13.0935333,46.3478947 L14.3918,46.553 L11.8517333,50.612 L11.8517333,53.6071053 L10.2739333,53.6071053" id="Fill-75" fill="#0E182B" sketch:type="MSShapeGroup"/>
                <path d="M16.8362,53.6071053 L15.2584,53.6071053 L15.2584,46.4516316 L17.7200667,46.4516316 C19.4878,46.4516316 20.5732667,47.1256842 20.5732667,48.5164211 C20.5732667,49.7219474 19.4318,50.9085263 17.5520667,50.9085263 L17.1829333,50.9085263 L17.1829333,50.0189474 L17.5296667,49.9876842 C18.2796,49.9469474 18.9954667,49.5282105 18.9954667,48.5666316 C18.9954667,47.8305263 18.47,47.4122632 17.5408667,47.4122632 L16.8362,47.4122632 L16.8362,53.6071053" id="Fill-76" fill="#0E182B" sketch:type="MSShapeGroup"/>
                <path d="M27.3063333,49.9270526 C27.3063333,48.6073684 26.646,47.3497368 25.0803333,47.3497368 C23.5128,47.3497368 22.8524667,48.6073684 22.8524667,49.9270526 C22.8524667,51.2978947 23.4348667,52.7075789 25.0803333,52.7075789 C26.7239333,52.7075789 27.3063333,51.2978947 27.3063333,49.9270526 M21.1738667,49.9270526 C21.1738667,47.9238421 22.8300667,46.3289474 25.0803333,46.3289474 C27.3287333,46.3289474 28.9835333,47.9238421 28.9835333,49.9270526 C28.9835333,52.0633684 27.4850667,53.7307368 25.0803333,53.7307368 C22.6737333,53.7307368 21.1738667,52.0633684 21.1738667,49.9270526" id="Fill-77" fill="#0E182B" sketch:type="MSShapeGroup"/>
                <path d="M31.1717333,53.6071053 L31.1717333,47.4122632 L28.7553333,47.4122632 L28.7553333,46.4516316 L35.1668667,46.4516316 L35.1668667,47.4122632 L32.7495333,47.4122632 L32.7495333,53.6071053 L31.1717333,53.6071053" id="Fill-78" fill="#0E182B" sketch:type="MSShapeGroup"/>
                <path d="M42.4725333,53.6071053 L40.8947333,53.6071053 L40.8947333,50.162 L37.6164,50.162 L37.6164,53.6071053 L36.0381333,53.6071053 L36.0381333,46.4516316 L37.6164,46.4516316 L37.6164,49.2008947 L40.8947333,49.2008947 L40.8947333,46.4715263 L42.4725333,46.4715263 L42.4725333,53.6071053" id="Fill-79" fill="#0E182B" sketch:type="MSShapeGroup"/>
                <path d="M48.1122,47.4122632 L45.483,47.4122632 L45.483,49.3747368 L48.0576,49.3747368 L48.0576,50.3353684 L45.483,50.3353684 L45.483,52.6469474 L48.5942667,52.6469474 L48.5942667,53.6071053 L43.9056667,53.6071053 L43.9056667,46.4516316 L48.1122,46.4516316 L48.1122,47.4122632" id="Fill-80" fill="#0E182B" sketch:type="MSShapeGroup"/>
                <path d="M54.2255333,47.4122632 L51.5958667,47.4122632 L51.5958667,49.3747368 L54.1690667,49.3747368 L54.1690667,50.3353684 L51.5958667,50.3353684 L51.5958667,52.6469474 L54.7066667,52.6469474 L54.7066667,53.6071053 L50.0180667,53.6071053 L50.0180667,46.4516316 L54.2255333,46.4516316 L54.2255333,47.4122632" id="Fill-81" fill="#0E182B" sketch:type="MSShapeGroup"/>
                <path d="M57.4007333,49.5485789 L57.4236,49.5485789 L60.232,46.3478947 L61.4845333,46.7680526 L58.8446,49.6508947 L62.0221333,53.321 L60.4102667,53.7094211 L57.4236,49.9876842 L57.4007333,49.9876842 L57.4007333,53.6071053 L55.8229333,53.6071053 L55.8229333,46.4516316 L57.4007333,46.4516316 L57.4007333,49.5485789" id="Fill-82" fill="#0E182B" sketch:type="MSShapeGroup"/>
                <path d="M4.36593333,57.4756842 C4.01966667,57.2611053 3.56093333,57.0668947 3.10126667,57.0668947 C2.4414,57.0668947 2.08346667,57.4051053 2.08346667,57.8238421 C2.08346667,58.2932632 2.63133333,58.6527895 3.54926667,59.3159474 C4.60113333,60.0837895 5.16066667,60.6863158 5.16066667,61.5659474 C5.16066667,62.4654737 4.22033333,63.509 2.4526,63.509 C1.6364,63.509 0.729666667,63.2835263 0.147733333,62.7918421 L0.718933333,61.9737895 C1.13333333,62.2513684 1.614,62.5469474 2.31866667,62.5469474 C2.96733333,62.5469474 3.53806667,62.2300526 3.53806667,61.556 C3.53806667,60.7673158 2.48666667,60.2467368 1.85946667,59.7972105 C1.09973333,59.2344737 0.4618,58.7948947 0.4618,57.8442105 C0.4618,56.8835789 1.52346667,56.1067368 2.94446667,56.1067368 C3.84093333,56.1067368 4.55633333,56.4027895 4.92546667,56.7291579 L4.36593333,57.4756842" id="Fill-83" fill="#0E182B" sketch:type="MSShapeGroup"/>
                <path d="M12.6352667,63.3863158 L11.0579333,63.3863158 L11.0579333,59.9402632 L7.77866667,59.9402632 L7.77866667,63.3863158 L6.20133333,63.3863158 L6.20133333,56.2294211 L7.77866667,56.2294211 L7.77866667,58.9791579 L11.0579333,58.9791579 L11.0579333,56.2497895 L12.6352667,56.2497895 L12.6352667,63.3863158" id="Fill-84" fill="#0E182B" sketch:type="MSShapeGroup"/>
                <path d="M19.7570667,59.7043684 C19.7570667,58.3856316 19.0962667,57.1284737 17.5296667,57.1284737 C15.9635333,57.1284737 15.3036667,58.3856316 15.3036667,59.7043684 C15.3036667,61.0766316 15.8842,62.4853684 17.5296667,62.4853684 C19.1751333,62.4853684 19.7570667,61.0766316 19.7570667,59.7043684 M13.6246,59.7043684 C13.6246,57.7021053 15.2812667,56.1067368 17.5296667,56.1067368 C19.7794667,56.1067368 21.4347333,57.7021053 21.4347333,59.7043684 C21.4347333,61.8416316 19.9358,63.509 17.5296667,63.509 C15.1230667,63.509 13.6246,61.8416316 13.6246,59.7043684" id="Fill-85" fill="#0E182B" sketch:type="MSShapeGroup"/>
                <path d="M24.1782667,63.3863158 L22.6009333,63.3863158 L22.6009333,56.2294211 L25.0626,56.2294211 C26.8303333,56.2294211 27.9158,56.9039474 27.9158,58.2932632 C27.9158,59.5002105 26.7743333,60.6863158 24.8950667,60.6863158 L24.5254667,60.6863158 L24.5254667,59.7972105 L24.8726667,59.7654737 C25.6221333,59.7252105 26.3384667,59.3064737 26.3384667,58.3448947 C26.3384667,57.6087895 25.8125333,57.1900526 24.8834,57.1900526 L24.1782667,57.1900526 L24.1782667,63.3863158" id="Fill-86" fill="#0E182B" sketch:type="MSShapeGroup"/>
                <path d="M39.7976,7.12257895 L52.8465333,25.4157895 L61.1826,25.4157895 L42.6741333,0.547368421 L36.7530667,0.547368421 L18.2478667,25.4157895 L26.2955333,25.4157895 L39.7976,7.12257895 Z" id="Fill-87" fill="#0E182B" sketch:type="MSShapeGroup"/>
                <path d="M54.8256667,43.6587895 L54.8256667,25.4157895 L48.7772,25.4157895 L48.7856,37.4644211 L36.7283333,37.4644211 L36.7465333,25.4157895 L30.6864,25.4157895 L30.6864,43.6587895 L54.8256667,43.6587895" id="Fill-88" fill="#0E182B" sketch:type="MSShapeGroup"/>
                <path d="M18.4919333,43.6573684 L24.5357333,43.6573684 L24.5357333,37.5222105 L18.4919333,37.5222105 L18.4919333,43.6573684 Z" id="Fill-89" fill="#0E182B" sketch:type="MSShapeGroup"/>
            </g>
        </g>
    </g>
</svg>